<?xml version="1.0" encoding="UTF-8" standalone="no"?>
<!DOCTYPE svg PUBLIC "-//W3C//DTD SVG 1.1//EN" "http://www.w3.org/Graphics/SVG/1.1/DTD/svg11.dtd">
<!-- Created with Vectornator (http://vectornator.io/) -->
<svg height="100%" stroke-miterlimit="10" style="fill-rule:nonzero;clip-rule:evenodd;stroke-linecap:round;stroke-linejoin:round;" version="1.1" viewBox="0 0 428 926" width="100%" xml:space="preserve" xmlns="http://www.w3.org/2000/svg" xmlns:vectornator="http://vectornator.io" xmlns:xlink="http://www.w3.org/1999/xlink">
<defs/>
<clipPath id="ArtboardFrame">
<rect height="926" width="428" x="0" y="0"/>
</clipPath>
<g clip-path="url(#ArtboardFrame)" id="Layer-1" vectornator:layerName="Layer 1">
<path d="M-5.68434e-14-8.52651e-14L428-8.52651e-14L428 926L-5.68434e-14 926L-5.68434e-14-8.52651e-14Z" fill="#000000" fill-opacity="0.5" fill-rule="nonzero" opacity="1" stroke="none" vectornator:layerName="Background"/>
<g opacity="1" vectornator:layerName="Hand">
<path d="M321.407 470.734C309.625 494.077 374.284 493.779 362.36 475.123" fill="none" opacity="1" stroke="#ffffff" stroke-linecap="round" stroke-linejoin="round" stroke-width="4" vectornator:layerName="Curve 6"/>
<path d="M363.503 453.579C362.857 455.827 361.966 458.541 360.966 461.152C359.798 464.201 358.481 467.111 357.235 468.981" fill="none" opacity="1" stroke="#ffffff" stroke-linecap="round" stroke-linejoin="round" stroke-width="4" vectornator:layerName="Curve 5"/>
<path d="M352.593 446.59C351.771 455.862 350.008 462.948 348.844 468.981" fill="none" opacity="1" stroke="#ffffff" stroke-linecap="round" stroke-linejoin="round" stroke-width="4" vectornator:layerName="Curve 4"/>
<path d="M339.256 453.076C339.256 453.076 339.498 463.073 338.77 468.309" fill="none" opacity="1" stroke="#ffffff" stroke-linecap="round" stroke-linejoin="round" stroke-width="4" vectornator:layerName="Curve 3"/>
<path d="M341.9 399.501C359.589 397.075 363.903 405.569 367.744 422.103" fill="none" opacity="1" stroke="#ffffff" stroke-linecap="round" stroke-linejoin="round" stroke-width="4" vectornator:layerName="Curve 2"/>
<path d="M365.278 411.258C381.5 407.997 395.781 448.199 362.062 474.872C323.836 487.263 310.041 457.785 302.664 453.076C288.858 444.263 279.107 447.839 278.703 441.829C277.709 427.032 295.895 419.486 316.715 437.867C324.842 416.505 316.318 400.856 318.202 383.953C320.184 366.179 337.7 362.784 341.023 368.821C346.285 373.691 336.719 390.715 344.275 417.344" fill="none" opacity="1" stroke="#ffffff" stroke-linecap="round" stroke-linejoin="round" stroke-width="4" vectornator:layerName="Curve 1"/>
</g>
</g>
<g id="Arrows" vectornator:layerName="Arrows">
<path d="M35.0181 812.861C35.0181 806.233 40.3907 800.861 47.0181 800.861L379.686 800.861C386.314 800.861 391.686 806.233 391.686 812.861L391.686 842.674C391.686 849.301 386.314 854.674 379.686 854.674L47.0181 854.674C40.3907 854.674 35.0181 849.301 35.0181 842.674L35.0181 812.861Z" fill="none" opacity="1" stroke="#ffffff" stroke-linecap="butt" stroke-linejoin="round" stroke-width="4" vectornator:layerName="Button rect"/>
<g opacity="1" vectornator:layerName="Arrow Up">
<path d="M337.869 687.415C337.11 650.799 336.144 612.838 337.432 581.299" fill="none" opacity="1" stroke="#ffffff" stroke-linecap="round" stroke-linejoin="round" stroke-width="4" vectornator:layerName="Curve 2"/>
<path d="M349.122 610.41C345.448 595.716 342.222 589.513 338.737 581.299C332.021 590.324 324.482 612.448 324.482 612.448" fill="none" opacity="1" stroke="#ffffff" stroke-linecap="round" stroke-linejoin="round" stroke-width="4" vectornator:layerName="Curve 3"/>
</g>
<g opacity="1" vectornator:layerName="Flip">
<path d="M204.33 425.647C157.014 426.889 107.96 428.468 67.2042 426.361" fill="none" opacity="1" stroke="#ffffff" stroke-linecap="round" stroke-linejoin="round" stroke-width="4" vectornator:layerName="Curve 2"/>
<path d="M181.351 415.964C196.046 419.639 200.502 421.294 208.716 424.779C199.691 431.495 179.532 440.389 179.532 440.389" fill="none" opacity="1" stroke="#ffffff" stroke-linecap="round" stroke-linejoin="round" stroke-width="4" vectornator:layerName="Curve 3"/>
<path d="M96.3153 414.394C84.1963 417.424 66.4874 425.15 65.0475 425.761C74.0726 432.477 93.6163 436.801 93.6163 436.801" fill="none" opacity="1" stroke="#ffffff" stroke-linecap="round" stroke-linejoin="round" stroke-width="4" vectornator:layerName="Curve 3"/>
</g>
<g opacity="1" vectornator:layerName="Arrow Down">
<path d="M325.549 177.368C324.79 213.984 323.824 251.945 325.112 283.484" fill="none" opacity="1" stroke="#ffffff" stroke-linecap="round" stroke-linejoin="round" stroke-width="3.91865" vectornator:layerName="Curve 2"/>
<path d="M336.802 254.372C333.128 269.067 329.902 275.27 326.417 283.484C319.701 274.458 312.162 252.335 312.162 252.335" fill="none" opacity="1" stroke="#ffffff" stroke-linecap="round" stroke-linejoin="round" stroke-width="3.91865" vectornator:layerName="Curve 3"/>
</g>
</g>
<g id="Texts" vectornator:layerName="Texts">
<g fill="#ffffff" opacity="1" stroke="none" vectornator:layerName="Previous">
<path d="M220.562 560.145C220.527 560.57 220.381 560.888 220.125 561.1C219.868 561.312 219.581 561.418 219.263 561.418C218.98 561.418 218.706 561.321 218.441 561.126C218.175 560.932 218.025 560.631 217.99 560.225L217.99 553.834C217.99 552.773 217.994 551.703 218.003 550.625C218.012 549.546 218.016 548.468 218.016 547.389C218.069 547.107 218.167 546.886 218.308 546.726C218.45 546.567 218.671 546.444 218.971 546.355C219.59 546.267 220.213 546.218 220.841 546.209C221.468 546.201 222.109 546.196 222.763 546.196C223.364 546.196 223.966 546.187 224.567 546.17C225.168 546.152 225.778 546.099 226.396 546.01C226.803 545.993 227.126 546.059 227.364 546.209C227.603 546.36 227.784 546.612 227.908 546.965C227.908 548.132 227.908 549.259 227.908 550.346C227.908 551.434 227.917 552.517 227.935 553.595C227.952 554.673 227.966 555.756 227.974 556.844C227.983 557.931 227.988 559.049 227.988 560.198C227.952 560.623 227.806 560.941 227.55 561.153C227.294 561.365 227.015 561.471 226.715 561.471C226.414 561.471 226.131 561.374 225.866 561.18C225.601 560.985 225.451 560.685 225.415 560.278C225.415 559.235 225.415 558.227 225.415 557.255C225.415 556.282 225.406 555.31 225.389 554.338C225.371 553.436 225.358 552.472 225.349 551.447C225.34 550.422 225.336 549.423 225.336 548.45C225.177 548.468 225.031 548.477 224.898 548.477C224.766 548.477 224.611 548.477 224.434 548.477C224.187 548.477 223.948 548.477 223.718 548.477C223.488 548.477 223.25 548.468 223.002 548.45C222.843 548.45 222.626 548.446 222.352 548.437C222.078 548.428 221.853 548.424 221.676 548.424C221.446 548.424 221.261 548.424 221.119 548.424C220.978 548.424 220.801 548.441 220.589 548.477C220.589 549.449 220.584 550.417 220.575 551.381C220.567 552.344 220.562 553.312 220.562 554.285L220.562 560.145Z"/>
<path d="M231.276 548.636C231.347 548.282 231.501 548.017 231.74 547.84C231.979 547.664 232.248 547.575 232.549 547.575C232.796 547.575 233.048 547.659 233.305 547.827C233.561 547.995 233.742 548.247 233.848 548.583L233.848 548.848C234.202 548.636 234.604 548.477 235.055 548.371C235.506 548.265 235.961 548.212 236.421 548.212C237.093 548.212 237.751 548.331 238.396 548.57C239.042 548.808 239.577 549.157 240.001 549.617C240.62 550.324 241.066 551.124 241.34 552.017C241.614 552.91 241.769 553.798 241.804 554.682C241.822 555.195 241.787 555.721 241.698 556.26C241.61 556.799 241.473 557.33 241.287 557.851C241.101 558.373 240.854 558.868 240.545 559.336C240.235 559.805 239.859 560.207 239.417 560.543C239.011 560.844 238.582 561.06 238.131 561.193C237.68 561.325 237.225 561.392 236.766 561.392C235.669 561.392 234.706 561.109 233.875 560.543L233.875 566.139C233.84 566.563 233.694 566.881 233.437 567.093C233.181 567.306 232.894 567.412 232.575 567.412C232.293 567.412 232.019 567.314 231.753 567.12C231.488 566.925 231.338 566.625 231.303 566.218C231.303 563.283 231.303 560.366 231.303 557.467C231.303 554.567 231.294 551.633 231.276 548.662L231.276 548.636ZM234.856 551.129C234.626 551.323 234.45 551.566 234.326 551.858C234.202 552.15 234.109 552.459 234.047 552.786C233.985 553.113 233.946 553.454 233.928 553.807C233.91 554.161 233.893 554.497 233.875 554.815C233.875 555.275 233.915 555.792 233.994 556.366C234.074 556.941 234.273 557.458 234.591 557.918C234.838 558.271 235.161 558.559 235.559 558.78C235.957 559.001 236.359 559.111 236.766 559.111C237.243 559.111 237.641 558.956 237.959 558.647C238.277 558.338 238.533 557.957 238.728 557.507C238.922 557.056 239.059 556.583 239.139 556.088C239.219 555.593 239.258 555.151 239.258 554.762C239.258 554.391 239.223 553.984 239.152 553.542C239.082 553.1 238.967 552.676 238.808 552.269C238.648 551.862 238.436 551.504 238.171 551.195C237.906 550.886 237.579 550.669 237.19 550.545C236.819 550.475 236.416 550.479 235.983 550.559C235.55 550.638 235.174 550.828 234.856 551.129Z"/>
<path d="M253.977 553.834C253.694 554.417 253.261 554.908 252.677 555.306C252.094 555.703 251.448 556.035 250.741 556.3C250.034 556.565 249.305 556.773 248.553 556.923C247.802 557.073 247.117 557.193 246.498 557.281C246.834 558.024 247.338 558.616 248.01 559.058C248.682 559.5 249.486 559.677 250.423 559.588C250.989 559.5 251.528 559.354 252.041 559.151C252.553 558.947 253.084 558.696 253.632 558.395C253.915 558.271 254.18 558.218 254.427 558.236C254.675 558.254 254.892 558.311 255.077 558.408C255.263 558.506 255.404 558.638 255.501 558.806C255.599 558.974 255.647 559.146 255.647 559.323C255.647 559.747 255.382 560.119 254.852 560.437C254.127 560.826 253.309 561.171 252.399 561.471C251.488 561.772 250.564 561.922 249.627 561.922C249.044 561.922 248.483 561.847 247.943 561.697C247.404 561.546 246.905 561.294 246.445 560.941C245.473 560.198 244.743 559.288 244.257 558.209C243.771 557.131 243.528 556.017 243.528 554.868C243.528 554.231 243.603 553.608 243.753 552.998C243.904 552.388 244.129 551.814 244.43 551.275C244.73 550.735 245.106 550.236 245.557 549.776C246.008 549.317 246.542 548.928 247.161 548.609C247.886 548.273 248.717 548.106 249.654 548.106C250.485 548.106 251.263 548.243 251.988 548.517C252.712 548.791 253.3 549.18 253.751 549.683C254.202 550.187 254.467 550.788 254.547 551.487C254.626 552.185 254.436 552.967 253.977 553.834ZM246.233 553.515C246.162 553.781 246.109 554.037 246.074 554.285C246.038 554.532 246.03 554.78 246.047 555.027C246.083 555.027 246.14 555.018 246.22 555.001C246.299 554.983 246.357 554.974 246.392 554.974C246.869 554.903 247.356 554.833 247.851 554.762C248.346 554.691 248.823 554.585 249.283 554.444C249.742 554.302 250.18 554.103 250.595 553.847C251.011 553.591 251.378 553.224 251.696 552.746C251.996 552.304 252.094 551.915 251.988 551.58C251.882 551.244 251.674 550.974 251.364 550.771C251.055 550.567 250.688 550.43 250.264 550.36C249.84 550.289 249.459 550.289 249.124 550.36C248.717 550.43 248.354 550.581 248.036 550.81C247.718 551.04 247.435 551.31 247.188 551.619C246.94 551.929 246.737 552.251 246.578 552.587C246.419 552.923 246.304 553.233 246.233 553.515Z"/>
<path d="M259.625 562.081C259.59 562.506 259.444 562.824 259.188 563.036C258.931 563.248 258.653 563.354 258.352 563.354C258.052 563.354 257.769 563.252 257.504 563.049C257.238 562.846 257.088 562.541 257.053 562.134C257.053 561.639 257.053 561.14 257.053 560.636C257.053 560.132 257.044 559.624 257.026 559.111C257.168 558.404 257.645 558.041 258.458 558.024L260.235 558.024C260.659 557.034 261.026 555.955 261.336 554.788C261.645 553.622 261.8 552.455 261.8 551.288C261.8 550.704 261.747 550.147 261.641 549.617C261.517 548.733 261.968 548.247 262.993 548.159C263.983 548.159 264.982 548.154 265.99 548.145C266.998 548.136 268.005 548.123 269.013 548.106C269.314 548.194 269.543 548.313 269.703 548.464C269.862 548.614 269.985 548.822 270.074 549.087C270.074 550.589 270.074 552.066 270.074 553.515C270.074 554.965 270.083 556.441 270.1 557.944L272.036 557.944C272.337 558.033 272.567 558.152 272.726 558.302C272.885 558.452 273.009 558.669 273.097 558.952C273.097 559.217 273.097 559.491 273.097 559.774C273.097 560.057 273.106 560.331 273.124 560.596C273.141 560.861 273.154 561.126 273.163 561.392C273.172 561.657 273.177 561.913 273.177 562.161C273.141 562.603 272.995 562.93 272.739 563.142C272.483 563.354 272.204 563.46 271.904 563.46C271.603 563.46 271.32 563.359 271.055 563.155C270.79 562.952 270.64 562.647 270.604 562.24C270.604 562.01 270.6 561.789 270.591 561.577C270.582 561.365 270.569 561.135 270.551 560.888C270.551 560.764 270.547 560.662 270.538 560.583C270.529 560.503 270.525 560.393 270.525 560.251C269.906 560.251 269.314 560.256 268.748 560.265C268.182 560.273 267.59 560.278 266.971 560.278C265.698 560.296 264.474 560.309 263.298 560.318C262.122 560.326 260.898 560.331 259.625 560.331L259.625 562.081ZM264.346 551.235C264.346 552.349 264.213 553.493 263.948 554.669C263.683 555.845 263.347 556.963 262.94 558.024C263.736 558.006 264.5 557.993 265.234 557.984C265.968 557.975 266.732 557.971 267.528 557.971L267.528 550.413C267.263 550.413 266.989 550.417 266.706 550.426C266.423 550.435 266.158 550.439 265.91 550.439L264.319 550.439C264.337 550.581 264.346 550.713 264.346 550.837C264.346 550.961 264.346 551.093 264.346 551.235Z"/>
<path d="M281.212 560.57C280.894 560.87 280.536 561.096 280.138 561.246C279.74 561.396 279.338 561.471 278.931 561.471C278.33 561.471 277.764 561.312 277.234 560.994C277.146 561.277 276.991 561.476 276.77 561.591C276.549 561.706 276.315 561.763 276.067 561.763C275.767 561.763 275.488 561.666 275.232 561.471C274.975 561.277 274.83 560.976 274.794 560.57C274.812 558.625 274.821 556.689 274.821 554.762C274.821 552.835 274.821 550.89 274.821 548.928C274.892 548.574 275.042 548.309 275.272 548.132C275.501 547.955 275.767 547.867 276.067 547.867C276.315 547.867 276.567 547.951 276.823 548.119C277.079 548.287 277.261 548.53 277.367 548.848L277.367 552.375C277.862 552.11 278.383 551.977 278.931 551.977C279.373 551.977 279.798 552.057 280.204 552.216C280.611 552.375 280.964 552.631 281.265 552.985C281.742 553.462 282.092 554.028 282.312 554.682C282.533 555.336 282.653 555.973 282.671 556.592C282.671 557.264 282.56 557.962 282.339 558.687C282.118 559.412 281.742 560.039 281.212 560.57ZM286.648 560.357C286.613 560.782 286.467 561.1 286.211 561.312C285.954 561.524 285.676 561.63 285.375 561.63C285.075 561.63 284.792 561.533 284.527 561.339C284.262 561.144 284.111 560.844 284.076 560.437C284.094 558.528 284.103 556.631 284.103 554.749C284.103 552.866 284.103 550.97 284.103 549.06C284.173 548.707 284.328 548.441 284.567 548.265C284.805 548.088 285.075 547.999 285.375 547.999C285.623 547.999 285.875 548.083 286.131 548.251C286.388 548.419 286.569 548.662 286.675 548.981C286.675 550.89 286.675 552.786 286.675 554.669C286.675 556.552 286.666 558.448 286.648 560.357ZM278.878 554.258C278.648 554.311 278.45 554.466 278.282 554.722C278.114 554.978 277.985 555.288 277.897 555.65C277.809 556.013 277.76 556.402 277.751 556.817C277.742 557.233 277.778 557.613 277.857 557.957C277.937 558.302 278.061 558.589 278.229 558.819C278.396 559.049 278.622 559.164 278.905 559.164C279.135 559.164 279.329 559.071 279.488 558.886C279.647 558.7 279.775 558.475 279.873 558.209C279.97 557.944 280.036 557.67 280.072 557.387C280.107 557.104 280.125 556.866 280.125 556.671C280.125 556.494 280.103 556.273 280.058 556.008C280.014 555.743 279.948 555.487 279.859 555.239C279.771 554.992 279.643 554.775 279.475 554.589C279.307 554.404 279.108 554.293 278.878 554.258Z"/>
<path d="M291.13 562.081C291.095 562.506 290.949 562.824 290.693 563.036C290.436 563.248 290.158 563.354 289.857 563.354C289.557 563.354 289.274 563.252 289.009 563.049C288.743 562.846 288.593 562.541 288.558 562.134C288.558 561.639 288.558 561.14 288.558 560.636C288.558 560.132 288.549 559.624 288.531 559.111C288.673 558.404 289.15 558.041 289.963 558.024L291.74 558.024C292.164 557.034 292.531 555.955 292.841 554.788C293.15 553.622 293.305 552.455 293.305 551.288C293.305 550.704 293.252 550.147 293.146 549.617C293.022 548.733 293.473 548.247 294.498 548.159C295.488 548.159 296.487 548.154 297.495 548.145C298.503 548.136 299.51 548.123 300.518 548.106C300.819 548.194 301.048 548.313 301.208 548.464C301.367 548.614 301.49 548.822 301.579 549.087C301.579 550.589 301.579 552.066 301.579 553.515C301.579 554.965 301.588 556.441 301.605 557.944L303.541 557.944C303.842 558.033 304.072 558.152 304.231 558.302C304.39 558.452 304.514 558.669 304.602 558.952C304.602 559.217 304.602 559.491 304.602 559.774C304.602 560.057 304.611 560.331 304.629 560.596C304.646 560.861 304.659 561.126 304.668 561.392C304.677 561.657 304.682 561.913 304.682 562.161C304.646 562.603 304.5 562.93 304.244 563.142C303.988 563.354 303.709 563.46 303.409 563.46C303.108 563.46 302.825 563.359 302.56 563.155C302.295 562.952 302.145 562.647 302.109 562.24C302.109 562.01 302.105 561.789 302.096 561.577C302.087 561.365 302.074 561.135 302.056 560.888C302.056 560.764 302.052 560.662 302.043 560.583C302.034 560.503 302.03 560.393 302.03 560.251C301.411 560.251 300.819 560.256 300.253 560.265C299.687 560.273 299.095 560.278 298.476 560.278C297.203 560.296 295.979 560.309 294.803 560.318C293.627 560.326 292.403 560.331 291.13 560.331L291.13 562.081ZM295.851 551.235C295.851 552.349 295.718 553.493 295.453 554.669C295.188 555.845 294.852 556.963 294.445 558.024C295.241 558.006 296.005 557.993 296.739 557.984C297.473 557.975 298.237 557.971 299.033 557.971L299.033 550.413C298.768 550.413 298.494 550.417 298.211 550.426C297.928 550.435 297.663 550.439 297.415 550.439L295.824 550.439C295.842 550.581 295.851 550.713 295.851 550.837C295.851 550.961 295.851 551.093 295.851 551.235Z"/>
<path d="M305.557 549.776C305.504 549.317 305.596 548.959 305.835 548.702C306.074 548.446 306.37 548.318 306.724 548.318C306.936 548.318 307.152 548.375 307.373 548.49C307.594 548.605 307.802 548.786 307.996 549.034C308.315 550.13 308.743 551.177 309.283 552.176C309.822 553.175 310.463 554.108 311.205 554.974C311.276 554.726 311.347 554.497 311.417 554.285C311.488 554.072 311.559 553.843 311.63 553.595C311.877 552.799 312.116 552.004 312.346 551.208C312.575 550.413 312.796 549.608 313.009 548.795C313.327 548.3 313.733 548.052 314.229 548.052C314.547 548.052 314.838 548.176 315.104 548.424C315.369 548.671 315.493 549.007 315.475 549.431C315.245 550.245 315.015 551.054 314.785 551.858C314.556 552.662 314.326 553.462 314.096 554.258C313.831 555.195 313.552 556.159 313.261 557.149C312.969 558.139 312.673 559.146 312.372 560.172C312.319 560.331 312.257 560.552 312.187 560.835C312.116 561.118 312.032 561.409 311.935 561.71C311.837 562.01 311.736 562.307 311.63 562.598C311.524 562.89 311.417 563.133 311.311 563.328C310.922 563.999 310.379 564.512 309.68 564.866C308.982 565.219 308.235 565.396 307.44 565.396C306.821 565.396 306.22 565.29 305.636 565.078C305.053 564.866 304.505 564.53 303.992 564.07C303.674 563.752 303.515 563.425 303.515 563.089C303.515 562.788 303.625 562.536 303.846 562.333C304.067 562.13 304.354 562.028 304.708 562.028C305.062 562.028 305.371 562.125 305.636 562.32C305.884 562.567 306.18 562.771 306.525 562.93C306.869 563.089 307.219 563.168 307.572 563.168C308.067 563.168 308.5 562.947 308.872 562.506C308.995 562.364 309.119 562.134 309.243 561.816C309.367 561.498 309.495 561.118 309.627 560.676C309.76 560.234 309.888 559.756 310.012 559.244C310.136 558.731 310.268 558.218 310.41 557.706C309.278 556.609 308.293 555.376 307.453 554.006C306.613 552.636 305.981 551.226 305.557 549.776Z"/>
<path d="M317.331 548.822C317.402 548.468 317.557 548.203 317.795 548.026C318.034 547.849 318.295 547.761 318.578 547.761C318.843 547.761 319.104 547.845 319.36 548.013C319.616 548.181 319.798 548.424 319.904 548.742C319.886 549.237 319.868 549.741 319.851 550.254C319.833 550.766 319.824 551.279 319.824 551.792C319.824 552.41 319.842 553.038 319.877 553.675C319.912 554.311 319.983 554.939 320.089 555.557C320.195 556.176 320.337 556.782 320.514 557.374C320.69 557.966 320.92 558.528 321.203 559.058C321.415 559.252 321.557 559.345 321.627 559.336C321.698 559.328 321.751 559.323 321.787 559.323C321.928 559.341 322.021 559.336 322.065 559.31C322.109 559.283 322.184 559.235 322.29 559.164C322.945 557.962 323.395 556.521 323.643 554.841C323.89 553.162 324.058 551.252 324.147 549.113C324.235 548.813 324.394 548.587 324.624 548.437C324.854 548.287 325.101 548.212 325.367 548.212C325.738 548.212 326.043 548.353 326.282 548.636C326.52 548.919 326.64 549.219 326.64 549.538C326.622 550.05 326.609 550.497 326.6 550.877C326.591 551.257 326.587 551.624 326.587 551.977C326.587 552.631 326.609 553.308 326.653 554.006C326.697 554.704 326.777 555.376 326.892 556.022C327.006 556.667 327.174 557.264 327.395 557.812C327.616 558.36 327.904 558.81 328.257 559.164L328.602 559.27L328.655 559.27C328.637 559.27 328.699 559.252 328.841 559.217C329.265 558.81 329.57 558.298 329.756 557.679C329.941 557.06 330.087 556.433 330.193 555.796C330.388 554.629 330.516 553.467 330.578 552.309C330.64 551.151 330.688 549.98 330.724 548.795C330.794 548.441 330.949 548.176 331.188 547.999C331.426 547.823 331.696 547.734 331.996 547.734C332.244 547.734 332.496 547.818 332.752 547.986C333.009 548.154 333.19 548.397 333.296 548.715C333.225 549.988 333.159 551.239 333.097 552.468C333.035 553.697 332.907 554.921 332.712 556.141C332.606 556.76 332.461 557.387 332.275 558.024C332.089 558.66 331.846 559.239 331.546 559.761C331.245 560.282 330.861 560.711 330.392 561.047C329.924 561.383 329.353 561.551 328.682 561.551C327.727 561.551 326.949 561.25 326.348 560.649C326.083 560.384 325.871 560.141 325.711 559.92C325.552 559.699 325.411 559.465 325.287 559.217L325.208 559.138L325.181 559.111C325.04 559.412 324.894 559.681 324.743 559.92C324.593 560.159 324.421 560.375 324.226 560.57C323.82 560.941 323.431 561.206 323.059 561.365C322.688 561.524 322.246 561.604 321.733 561.604C321.221 561.604 320.721 561.498 320.235 561.286C319.749 561.073 319.356 560.729 319.055 560.251C318.684 559.65 318.379 559.005 318.14 558.315C317.901 557.626 317.72 556.914 317.596 556.181C317.473 555.447 317.389 554.709 317.345 553.966C317.3 553.224 317.278 552.481 317.278 551.739C317.278 551.244 317.283 550.753 317.292 550.267C317.3 549.781 317.314 549.308 317.331 548.848L317.331 548.822ZM334.675 561.789C334.675 562.408 334.573 562.925 334.37 563.341C334.167 563.756 333.809 564.088 333.296 564.335C332.536 564.689 331.74 564.866 330.909 564.866C329.371 564.866 328.602 564.53 328.602 563.858C328.602 563.557 328.704 563.323 328.907 563.155C329.11 562.987 329.362 562.903 329.663 562.903C329.946 562.903 330.193 562.925 330.405 562.97C330.617 563.014 330.821 563.036 331.015 563.036C331.988 563.036 332.5 562.612 332.553 561.763C332.324 561.515 331.784 561.365 330.936 561.312C329.751 561.277 329.159 561.047 329.159 560.623C329.159 560.587 329.163 560.539 329.172 560.477C329.181 560.415 329.208 560.318 329.252 560.185C329.296 560.052 329.358 559.871 329.437 559.641C329.517 559.412 329.636 559.111 329.795 558.74C329.972 558.315 330.308 558.103 330.803 558.103C331.528 558.103 331.89 558.448 331.89 559.138C331.89 559.332 331.864 559.518 331.811 559.694C333.72 559.96 334.675 560.658 334.675 561.789Z"/>
<path d="M341.384 552.349C341.437 552.331 341.583 552.278 341.822 552.189C342.061 552.101 342.312 552.013 342.578 551.924C342.843 551.836 343.082 551.747 343.294 551.659C343.506 551.571 343.621 551.518 343.638 551.5C343.55 550.97 343.409 550.545 343.214 550.227C343.002 549.98 342.728 549.856 342.392 549.856C342.038 549.856 341.667 549.935 341.278 550.094C340.889 550.254 340.589 550.422 340.377 550.598C340.182 550.722 339.979 550.877 339.767 551.062C339.554 551.248 339.298 551.473 338.998 551.739C338.821 551.845 338.657 551.915 338.507 551.951C338.357 551.986 338.211 552.004 338.069 552.004C337.716 552.004 337.429 551.907 337.208 551.712C336.987 551.518 336.876 551.261 336.876 550.943C336.876 550.678 336.947 550.43 337.088 550.201C337.442 549.882 337.809 549.568 338.189 549.259C338.569 548.95 338.971 548.671 339.395 548.424C339.696 548.229 340.023 548.061 340.377 547.92C340.73 547.778 341.084 547.681 341.437 547.628C341.685 547.593 341.954 547.575 342.246 547.575C342.538 547.575 342.799 547.593 343.029 547.628C344.019 547.823 344.748 548.243 345.216 548.888C345.685 549.533 345.99 550.298 346.131 551.182C346.22 551.747 346.268 552.326 346.277 552.919C346.286 553.511 346.29 554.099 346.29 554.682L346.29 555.239C346.29 555.628 346.295 555.982 346.304 556.3C346.312 556.618 346.357 556.919 346.436 557.202C346.516 557.485 346.644 557.754 346.821 558.01C346.998 558.267 347.254 558.536 347.59 558.819C347.82 559.102 347.935 559.394 347.935 559.694C347.935 560.136 347.736 560.455 347.338 560.649C346.94 560.844 346.467 560.817 345.919 560.57C345.548 560.269 345.243 559.986 345.004 559.721C344.766 559.456 344.567 559.182 344.408 558.899C343.7 559.677 342.892 560.34 341.981 560.888C341.071 561.436 340.138 561.71 339.183 561.71C338.671 561.71 338.189 561.533 337.738 561.18C337.287 560.826 336.92 560.402 336.637 559.907C336.195 559.111 335.974 558.267 335.974 557.374C335.974 556.481 336.284 555.637 336.903 554.841C337.468 554.205 338.153 553.706 338.958 553.343C339.762 552.981 340.571 552.649 341.384 552.349ZM343.718 554.788C343.718 554.629 343.722 554.506 343.731 554.417C343.74 554.329 343.745 554.187 343.745 553.993C343.515 554.081 343.285 554.165 343.055 554.245C342.825 554.324 342.595 554.408 342.366 554.497C342.083 554.603 341.716 554.735 341.265 554.894C340.814 555.054 340.377 555.257 339.952 555.504C339.528 555.752 339.17 556.039 338.878 556.366C338.587 556.693 338.458 557.069 338.494 557.493C338.529 557.812 338.609 558.134 338.732 558.461C338.856 558.788 339.157 559.076 339.634 559.323C339.793 559.359 340.054 559.252 340.416 559.005C340.779 558.757 341.172 558.448 341.596 558.077C342.021 557.706 342.432 557.308 342.83 556.883C343.227 556.459 343.524 556.079 343.718 555.743L343.718 554.788Z"/>
<path d="M349.552 559.907C350.083 559.323 350.538 558.828 350.918 558.422C351.298 558.015 351.63 557.661 351.912 557.361C352.195 557.06 352.452 556.791 352.682 556.552C352.911 556.313 353.141 556.088 353.371 555.876C352.858 555.699 352.368 555.443 351.899 555.107C351.431 554.771 351.02 554.377 350.666 553.926C350.312 553.476 350.043 552.989 349.857 552.468C349.672 551.946 349.623 551.403 349.711 550.837C349.8 550.36 349.985 549.935 350.268 549.564C350.551 549.193 350.892 548.883 351.289 548.636C351.687 548.388 352.125 548.22 352.602 548.132C353.079 548.044 353.566 548.035 354.061 548.106C354.361 548.159 354.706 548.26 355.095 548.41C355.484 548.561 355.802 548.689 356.05 548.795C356.279 548.565 356.571 548.45 356.925 548.45C357.208 548.45 357.473 548.525 357.72 548.676C357.968 548.826 358.136 549.069 358.224 549.405L358.224 560.437C358.189 560.861 358.047 561.18 357.8 561.392C357.552 561.604 357.269 561.71 356.951 561.71C356.668 561.71 356.394 561.613 356.129 561.418C355.864 561.224 355.714 560.923 355.678 560.517L355.678 557.043C354.812 557.944 354.061 558.735 353.424 559.416C352.788 560.097 352.151 560.773 351.515 561.445C351.32 561.568 351.143 561.652 350.984 561.697C350.825 561.741 350.675 561.763 350.533 561.763C350.18 561.763 349.888 561.661 349.658 561.458C349.429 561.255 349.314 560.994 349.314 560.676C349.314 560.57 349.331 560.45 349.367 560.318C349.402 560.185 349.464 560.048 349.552 559.907ZM352.178 551.792C352.514 552.464 353.009 552.985 353.663 553.356C354.317 553.728 354.989 553.984 355.678 554.125L355.678 551.42C355.325 551.138 355.064 550.943 354.896 550.837C354.728 550.731 354.538 550.634 354.326 550.545C354.025 550.439 353.751 550.386 353.504 550.386C353.132 550.386 352.805 550.497 352.522 550.718C352.24 550.939 352.125 551.297 352.178 551.792Z"/>
</g>
<g fill="#ffffff" opacity="1" stroke="none" vectornator:layerName="Flip">
<path d="M70.7683 469.675C70.7329 470.099 70.587 470.418 70.3307 470.63C70.0743 470.842 69.787 470.948 69.4688 470.948C69.1859 470.948 68.9119 470.851 68.6467 470.656C68.3815 470.462 68.2312 470.161 68.1959 469.755L68.1959 463.364C68.1959 462.303 68.2003 461.233 68.2091 460.155C68.218 459.076 68.2224 457.998 68.2224 456.919C68.2754 456.636 68.3727 456.415 68.5141 456.256C68.6556 456.097 68.8766 455.973 69.1771 455.885C69.7959 455.797 70.4191 455.748 71.0467 455.739C71.6743 455.73 72.3152 455.726 72.9694 455.726C73.5705 455.726 74.1716 455.717 74.7727 455.699C75.3738 455.682 75.9837 455.629 76.6025 455.54C77.0091 455.523 77.3318 455.589 77.5705 455.739C77.8091 455.889 77.9904 456.141 78.1141 456.495C78.1141 457.662 78.1141 458.789 78.1141 459.876C78.1141 460.964 78.123 462.046 78.1406 463.125C78.1583 464.203 78.1716 465.286 78.1804 466.373C78.1893 467.461 78.1937 468.579 78.1937 469.728C78.1583 470.152 78.0125 470.471 77.7561 470.683C77.4998 470.895 77.2213 471.001 76.9207 471.001C76.6202 471.001 76.3373 470.904 76.0721 470.709C75.8069 470.515 75.6567 470.214 75.6213 469.808C75.6213 468.765 75.6213 467.757 75.6213 466.784C75.6213 465.812 75.6125 464.84 75.5948 463.867C75.5771 462.966 75.5638 462.002 75.555 460.977C75.5462 459.951 75.5417 458.952 75.5417 457.98C75.3826 457.998 75.2368 458.007 75.1042 458.007C74.9716 458.007 74.8169 458.007 74.6401 458.007C74.3926 458.007 74.1539 458.007 73.9241 458.007C73.6942 458.007 73.4556 457.998 73.208 457.98C73.0489 457.98 72.8324 457.976 72.5583 457.967C72.2843 457.958 72.0589 457.954 71.8821 457.954C71.6522 457.954 71.4666 457.954 71.3252 457.954C71.1837 457.954 71.0069 457.971 70.7948 458.007C70.7948 458.979 70.7904 459.947 70.7815 460.91C70.7727 461.874 70.7683 462.842 70.7683 463.814L70.7683 469.675Z"/>
<path d="M91.639 463.364C91.3561 463.947 90.923 464.438 90.3395 464.835C89.7561 465.233 89.1108 465.565 88.4036 465.83C87.6964 466.095 86.9672 466.303 86.2158 466.453C85.4644 466.603 84.7793 466.723 84.1605 466.811C84.4964 467.554 85.0003 468.146 85.6721 468.588C86.344 469.03 87.1484 469.207 88.0854 469.118C88.6511 469.03 89.1904 468.884 89.7031 468.681C90.2158 468.477 90.7462 468.225 91.2942 467.925C91.5771 467.801 91.8423 467.748 92.0898 467.766C92.3373 467.783 92.5539 467.841 92.7395 467.938C92.9252 468.035 93.0666 468.168 93.1638 468.336C93.2611 468.504 93.3097 468.676 93.3097 468.853C93.3097 469.277 93.0445 469.649 92.5141 469.967C91.7893 470.356 90.9716 470.701 90.0611 471.001C89.1506 471.302 88.2268 471.452 87.2898 471.452C86.7064 471.452 86.1451 471.377 85.6058 471.226C85.0666 471.076 84.5672 470.824 84.1075 470.471C83.1351 469.728 82.4058 468.818 81.9196 467.739C81.4335 466.661 81.1904 465.547 81.1904 464.398C81.1904 463.761 81.2655 463.138 81.4158 462.528C81.5661 461.918 81.7915 461.344 82.092 460.804C82.3926 460.265 82.7683 459.766 83.2191 459.306C83.6699 458.846 84.2047 458.457 84.8235 458.139C85.5484 457.803 86.3793 457.635 87.3163 457.635C88.1473 457.635 88.9252 457.772 89.65 458.046C90.3749 458.32 90.9627 458.709 91.4136 459.213C91.8644 459.717 92.1296 460.318 92.2091 461.017C92.2887 461.715 92.0986 462.497 91.639 463.364ZM83.8953 463.045C83.8246 463.31 83.7716 463.567 83.7362 463.814C83.7009 464.062 83.692 464.309 83.7097 464.557C83.7451 464.557 83.8025 464.548 83.8821 464.53C83.9616 464.513 84.0191 464.504 84.0545 464.504C84.5318 464.433 85.018 464.362 85.513 464.292C86.008 464.221 86.4854 464.115 86.9451 463.973C87.4047 463.832 87.8423 463.633 88.2578 463.377C88.6732 463.12 89.0401 462.754 89.3583 462.276C89.6589 461.834 89.7561 461.445 89.65 461.109C89.544 460.773 89.3362 460.504 89.0268 460.301C88.7174 460.097 88.3506 459.96 87.9263 459.889C87.502 459.819 87.1219 459.819 86.7859 459.889C86.3793 459.96 86.0169 460.11 85.6986 460.34C85.3804 460.57 85.0975 460.84 84.85 461.149C84.6025 461.459 84.3992 461.781 84.2401 462.117C84.081 462.453 83.9661 462.762 83.8953 463.045Z"/>
<path d="M95.2456 458.166C95.3163 457.812 95.471 457.547 95.7097 457.37C95.9484 457.193 96.218 457.105 96.5185 457.105C96.7661 457.105 97.018 457.189 97.2743 457.357C97.5307 457.525 97.7119 457.777 97.818 458.113L97.818 458.378C98.1716 458.166 98.5738 458.007 99.0246 457.901C99.4754 457.794 99.9307 457.741 100.39 457.741C101.062 457.741 101.721 457.861 102.366 458.099C103.011 458.338 103.546 458.687 103.97 459.147C104.589 459.854 105.036 460.654 105.31 461.547C105.584 462.44 105.738 463.328 105.774 464.212C105.791 464.725 105.756 465.251 105.668 465.79C105.579 466.329 105.442 466.86 105.257 467.381C105.071 467.903 104.824 468.398 104.514 468.866C104.205 469.335 103.829 469.737 103.387 470.073C102.98 470.373 102.552 470.59 102.101 470.723C101.65 470.855 101.195 470.922 100.735 470.922C99.639 470.922 98.6754 470.639 97.8445 470.073L97.8445 475.668C97.8091 476.093 97.6633 476.411 97.4069 476.623C97.1506 476.835 96.8633 476.941 96.5451 476.941C96.2622 476.941 95.9882 476.844 95.723 476.65C95.4578 476.455 95.3075 476.155 95.2721 475.748C95.2721 472.813 95.2721 469.896 95.2721 466.997C95.2721 464.097 95.2633 461.162 95.2456 458.192L95.2456 458.166ZM98.8257 460.659C98.5959 460.853 98.4191 461.096 98.2953 461.388C98.1716 461.68 98.0788 461.989 98.0169 462.316C97.955 462.643 97.9152 462.983 97.8975 463.337C97.8799 463.691 97.8622 464.026 97.8445 464.345C97.8445 464.804 97.8843 465.322 97.9638 465.896C98.0434 466.471 98.2423 466.988 98.5605 467.447C98.808 467.801 99.1307 468.088 99.5285 468.309C99.9263 468.53 100.328 468.641 100.735 468.641C101.212 468.641 101.61 468.486 101.928 468.177C102.247 467.867 102.503 467.487 102.698 467.036C102.892 466.586 103.029 466.113 103.109 465.618C103.188 465.123 103.228 464.681 103.228 464.292C103.228 463.92 103.193 463.514 103.122 463.072C103.051 462.63 102.936 462.205 102.777 461.799C102.618 461.392 102.406 461.034 102.141 460.725C101.875 460.415 101.548 460.199 101.159 460.075C100.788 460.004 100.386 460.009 99.9528 460.088C99.5196 460.168 99.144 460.358 98.8257 460.659Z"/>
<path d="M117.946 463.364C117.663 463.947 117.23 464.438 116.647 464.835C116.063 465.233 115.418 465.565 114.711 465.83C114.004 466.095 113.274 466.303 112.523 466.453C111.772 466.603 111.086 466.723 110.468 466.811C110.804 467.554 111.307 468.146 111.979 468.588C112.651 469.03 113.456 469.207 114.393 469.118C114.958 469.03 115.498 468.884 116.01 468.681C116.523 468.477 117.053 468.225 117.601 467.925C117.884 467.801 118.149 467.748 118.397 467.766C118.645 467.783 118.861 467.841 119.047 467.938C119.232 468.035 119.374 468.168 119.471 468.336C119.568 468.504 119.617 468.676 119.617 468.853C119.617 469.277 119.352 469.649 118.821 469.967C118.096 470.356 117.279 470.701 116.368 471.001C115.458 471.302 114.534 471.452 113.597 471.452C113.014 471.452 112.452 471.377 111.913 471.226C111.374 471.076 110.874 470.824 110.415 470.471C109.442 469.728 108.713 468.818 108.227 467.739C107.741 466.661 107.498 465.547 107.498 464.398C107.498 463.761 107.573 463.138 107.723 462.528C107.873 461.918 108.099 461.344 108.399 460.804C108.7 460.265 109.075 459.766 109.526 459.306C109.977 458.846 110.512 458.457 111.131 458.139C111.856 457.803 112.686 457.635 113.624 457.635C114.454 457.635 115.232 457.772 115.957 458.046C116.682 458.32 117.27 458.709 117.721 459.213C118.172 459.717 118.437 460.318 118.516 461.017C118.596 461.715 118.406 462.497 117.946 463.364ZM110.203 463.045C110.132 463.31 110.079 463.567 110.043 463.814C110.008 464.062 109.999 464.309 110.017 464.557C110.052 464.557 110.11 464.548 110.189 464.53C110.269 464.513 110.326 464.504 110.362 464.504C110.839 464.433 111.325 464.362 111.82 464.292C112.315 464.221 112.793 464.115 113.252 463.973C113.712 463.832 114.149 463.633 114.565 463.377C114.98 463.12 115.347 462.754 115.666 462.276C115.966 461.834 116.063 461.445 115.957 461.109C115.851 460.773 115.643 460.504 115.334 460.301C115.025 460.097 114.658 459.96 114.233 459.889C113.809 459.819 113.429 459.819 113.093 459.889C112.686 459.96 112.324 460.11 112.006 460.34C111.688 460.57 111.405 460.84 111.157 461.149C110.91 461.459 110.706 461.781 110.547 462.117C110.388 462.453 110.273 462.762 110.203 463.045Z"/>
<path d="M123.197 471.16C122.985 471.16 122.746 471.143 122.481 471.107C122.216 471.072 121.977 470.997 121.765 470.882C121.553 470.767 121.389 470.612 121.274 470.418C121.159 470.223 121.155 469.967 121.261 469.649L121.261 458.908C121.296 458.714 121.354 458.555 121.433 458.431C121.513 458.307 121.65 458.175 121.845 458.033C122.34 457.821 122.843 457.626 123.356 457.45C123.869 457.273 124.39 457.14 124.921 457.052C125.451 456.964 125.986 456.937 126.525 456.972C127.064 457.008 127.608 457.14 128.156 457.37C128.899 457.706 129.517 458.183 130.012 458.802C130.507 459.421 130.755 460.102 130.755 460.844C130.755 461.41 130.609 461.927 130.317 462.396C130.026 462.864 129.65 463.275 129.19 463.629C129.862 464.018 130.384 464.508 130.755 465.101C131.126 465.693 131.312 466.307 131.312 466.944C131.312 467.456 131.179 467.96 130.914 468.455C130.649 468.95 130.242 469.419 129.694 469.861C129.288 470.179 128.819 470.422 128.289 470.59C127.758 470.758 127.201 470.882 126.618 470.961C126.035 471.041 125.451 471.094 124.868 471.12C124.284 471.147 123.727 471.16 123.197 471.16ZM125.69 464.955C125.336 464.919 125.014 464.897 124.722 464.888C124.43 464.88 124.134 464.875 123.833 464.875L123.833 468.88C124.24 468.88 124.673 468.884 125.133 468.893C125.593 468.902 126.035 468.88 126.459 468.826C126.883 468.773 127.272 468.667 127.626 468.508C127.979 468.349 128.262 468.093 128.474 467.739C128.74 467.297 128.824 466.917 128.726 466.599C128.629 466.281 128.426 466.007 128.116 465.777C127.807 465.547 127.44 465.366 127.016 465.233C126.591 465.101 126.185 465.008 125.796 464.955L125.69 464.955ZM123.833 462.594C124.134 462.594 124.443 462.599 124.762 462.608C125.08 462.617 125.389 462.63 125.69 462.647C125.902 462.63 126.158 462.568 126.459 462.462C126.759 462.356 127.042 462.219 127.307 462.051C127.573 461.883 127.798 461.688 127.984 461.467C128.169 461.246 128.262 461.003 128.262 460.738C128.262 460.296 128.081 459.956 127.719 459.717C127.356 459.478 126.927 459.324 126.432 459.253C125.937 459.182 125.447 459.191 124.961 459.28C124.474 459.368 124.099 459.509 123.833 459.704L123.833 462.594Z"/>
<path d="M143.59 463.364C143.307 463.947 142.874 464.438 142.291 464.835C141.707 465.233 141.062 465.565 140.355 465.83C139.648 466.095 138.919 466.303 138.167 466.453C137.416 466.603 136.731 466.723 136.112 466.811C136.448 467.554 136.952 468.146 137.624 468.588C138.295 469.03 139.1 469.207 140.037 469.118C140.603 469.03 141.142 468.884 141.654 468.681C142.167 468.477 142.698 468.225 143.246 467.925C143.528 467.801 143.794 467.748 144.041 467.766C144.289 467.783 144.505 467.841 144.691 467.938C144.877 468.035 145.018 468.168 145.115 468.336C145.212 468.504 145.261 468.676 145.261 468.853C145.261 469.277 144.996 469.649 144.466 469.967C143.741 470.356 142.923 470.701 142.012 471.001C141.102 471.302 140.178 471.452 139.241 471.452C138.658 471.452 138.096 471.377 137.557 471.226C137.018 471.076 136.519 470.824 136.059 470.471C135.086 469.728 134.357 468.818 133.871 467.739C133.385 466.661 133.142 465.547 133.142 464.398C133.142 463.761 133.217 463.138 133.367 462.528C133.517 461.918 133.743 461.344 134.043 460.804C134.344 460.265 134.72 459.766 135.17 459.306C135.621 458.846 136.156 458.457 136.775 458.139C137.5 457.803 138.331 457.635 139.268 457.635C140.099 457.635 140.877 457.772 141.601 458.046C142.326 458.32 142.914 458.709 143.365 459.213C143.816 459.717 144.081 460.318 144.161 461.017C144.24 461.715 144.05 462.497 143.59 463.364ZM135.847 463.045C135.776 463.31 135.723 463.567 135.688 463.814C135.652 464.062 135.643 464.309 135.661 464.557C135.696 464.557 135.754 464.548 135.833 464.53C135.913 464.513 135.97 464.504 136.006 464.504C136.483 464.433 136.969 464.362 137.464 464.292C137.959 464.221 138.437 464.115 138.896 463.973C139.356 463.832 139.794 463.633 140.209 463.377C140.625 463.12 140.991 462.754 141.31 462.276C141.61 461.834 141.707 461.445 141.601 461.109C141.495 460.773 141.288 460.504 140.978 460.301C140.669 460.097 140.302 459.96 139.878 459.889C139.453 459.819 139.073 459.819 138.737 459.889C138.331 459.96 137.968 460.11 137.65 460.34C137.332 460.57 137.049 460.84 136.801 461.149C136.554 461.459 136.351 461.781 136.191 462.117C136.032 462.453 135.917 462.762 135.847 463.045Z"/>
<path d="M147.197 458.166C147.268 457.812 147.422 457.547 147.661 457.37C147.9 457.193 148.169 457.105 148.47 457.105C148.717 457.105 148.969 457.189 149.226 457.357C149.482 457.525 149.663 457.777 149.769 458.113L149.769 458.378C150.123 458.166 150.525 458.007 150.976 457.901C151.427 457.794 151.882 457.741 152.342 457.741C153.014 457.741 153.672 457.861 154.317 458.099C154.963 458.338 155.498 458.687 155.922 459.147C156.541 459.854 156.987 460.654 157.261 461.547C157.535 462.44 157.69 463.328 157.725 464.212C157.743 464.725 157.707 465.251 157.619 465.79C157.531 466.329 157.394 466.86 157.208 467.381C157.022 467.903 156.775 468.398 156.466 468.866C156.156 469.335 155.78 469.737 155.338 470.073C154.932 470.373 154.503 470.59 154.052 470.723C153.601 470.855 153.146 470.922 152.686 470.922C151.59 470.922 150.627 470.639 149.796 470.073L149.796 475.668C149.761 476.093 149.615 476.411 149.358 476.623C149.102 476.835 148.815 476.941 148.496 476.941C148.214 476.941 147.94 476.844 147.674 476.65C147.409 476.455 147.259 476.155 147.224 475.748C147.224 472.813 147.224 469.896 147.224 466.997C147.224 464.097 147.215 461.162 147.197 458.192L147.197 458.166ZM150.777 460.659C150.547 460.853 150.37 461.096 150.247 461.388C150.123 461.68 150.03 461.989 149.968 462.316C149.906 462.643 149.867 462.983 149.849 463.337C149.831 463.691 149.814 464.026 149.796 464.345C149.796 464.804 149.836 465.322 149.915 465.896C149.995 466.471 150.194 466.988 150.512 467.447C150.759 467.801 151.082 468.088 151.48 468.309C151.878 468.53 152.28 468.641 152.686 468.641C153.164 468.641 153.562 468.486 153.88 468.177C154.198 467.867 154.454 467.487 154.649 467.036C154.843 466.586 154.98 466.113 155.06 465.618C155.14 465.123 155.179 464.681 155.179 464.292C155.179 463.92 155.144 463.514 155.073 463.072C155.003 462.63 154.888 462.205 154.728 461.799C154.569 461.392 154.357 461.034 154.092 460.725C153.827 460.415 153.5 460.199 153.111 460.075C152.74 460.004 152.337 460.009 151.904 460.088C151.471 460.168 151.095 460.358 150.777 460.659Z"/>
<path d="M160.138 458.643C160.209 458.289 160.359 458.024 160.589 457.847C160.819 457.671 161.084 457.582 161.385 457.582C161.65 457.582 161.906 457.666 162.154 457.834C162.401 458.002 162.578 458.245 162.684 458.564C162.684 458.97 162.68 459.368 162.671 459.757C162.662 460.146 162.658 460.535 162.658 460.924L162.658 463.045C162.958 463.01 163.259 462.979 163.559 462.952C163.86 462.926 164.161 462.895 164.461 462.86C164.815 462.824 165.128 462.789 165.403 462.754C165.677 462.718 165.99 462.674 166.344 462.621C166.344 462.391 166.344 462.157 166.344 461.918C166.344 461.68 166.344 461.405 166.344 461.096C166.344 460.787 166.348 460.424 166.357 460.009C166.366 459.593 166.37 459.094 166.37 458.51C166.37 458.21 166.507 457.954 166.782 457.741C167.056 457.529 167.343 457.423 167.643 457.423C167.732 457.423 167.842 457.441 167.975 457.476C168.107 457.512 168.24 457.569 168.373 457.649C168.505 457.728 168.625 457.834 168.731 457.967C168.837 458.099 168.899 458.254 168.916 458.431C168.916 459.262 168.916 459.996 168.916 460.632C168.916 461.268 168.916 461.843 168.916 462.356C168.916 462.868 168.921 463.341 168.93 463.775C168.938 464.208 168.943 464.628 168.943 465.034C168.961 465.865 168.974 466.692 168.983 467.514C168.991 468.336 168.996 469.162 168.996 469.993C168.961 470.418 168.815 470.736 168.558 470.948C168.302 471.16 168.024 471.266 167.723 471.266C167.422 471.266 167.144 471.169 166.888 470.975C166.631 470.78 166.485 470.48 166.45 470.073C166.45 469.207 166.45 468.491 166.45 467.925C166.45 467.359 166.446 466.891 166.437 466.519C166.428 466.148 166.424 465.843 166.424 465.604C166.424 465.366 166.424 465.14 166.424 464.928C165.787 465.017 165.168 465.096 164.567 465.167C163.966 465.238 163.347 465.317 162.711 465.405C162.693 466.289 162.689 467.143 162.698 467.965C162.706 468.787 162.702 469.569 162.684 470.312C162.684 470.471 162.636 470.603 162.538 470.709C162.441 470.815 162.322 470.899 162.18 470.961C162.039 471.023 161.893 471.063 161.743 471.081C161.593 471.098 161.464 471.107 161.358 471.107C161.058 471.107 160.793 471.019 160.563 470.842C160.333 470.665 160.183 470.4 160.112 470.046L160.112 464.292C160.112 463.355 160.116 462.422 160.125 461.494C160.134 460.566 160.138 459.624 160.138 458.67L160.138 458.643Z"/>
<path d="M170.773 459.306C170.72 458.846 170.812 458.488 171.051 458.232C171.29 457.976 171.586 457.847 171.94 457.847C172.152 457.847 172.368 457.905 172.589 458.02C172.81 458.135 173.018 458.316 173.212 458.564C173.531 459.66 173.959 460.707 174.499 461.706C175.038 462.705 175.679 463.638 176.421 464.504C176.492 464.256 176.563 464.026 176.633 463.814C176.704 463.602 176.775 463.372 176.846 463.125C177.093 462.329 177.332 461.534 177.562 460.738C177.791 459.943 178.012 459.138 178.225 458.325C178.543 457.83 178.949 457.582 179.445 457.582C179.763 457.582 180.054 457.706 180.32 457.954C180.585 458.201 180.709 458.537 180.691 458.961C180.461 459.775 180.231 460.583 180.001 461.388C179.772 462.192 179.542 462.992 179.312 463.788C179.047 464.725 178.768 465.688 178.477 466.678C178.185 467.668 177.889 468.676 177.588 469.702C177.535 469.861 177.473 470.082 177.403 470.365C177.332 470.647 177.248 470.939 177.151 471.24C177.053 471.54 176.952 471.836 176.846 472.128C176.74 472.42 176.633 472.663 176.527 472.857C176.138 473.529 175.595 474.042 174.896 474.396C174.198 474.749 173.451 474.926 172.656 474.926C172.037 474.926 171.436 474.82 170.852 474.608C170.269 474.396 169.721 474.06 169.208 473.6C168.89 473.282 168.731 472.955 168.731 472.619C168.731 472.318 168.841 472.066 169.062 471.863C169.283 471.66 169.57 471.558 169.924 471.558C170.278 471.558 170.587 471.655 170.852 471.85C171.1 472.097 171.396 472.301 171.741 472.46C172.085 472.619 172.435 472.698 172.788 472.698C173.283 472.698 173.716 472.477 174.088 472.035C174.211 471.894 174.335 471.664 174.459 471.346C174.583 471.028 174.711 470.647 174.843 470.205C174.976 469.764 175.104 469.286 175.228 468.773C175.352 468.261 175.484 467.748 175.626 467.235C174.494 466.139 173.509 464.906 172.669 463.536C171.829 462.166 171.197 460.756 170.773 459.306Z"/>
<path d="M188.01 470.099C187.993 470.524 187.856 470.842 187.599 471.054C187.343 471.266 187.056 471.372 186.737 471.372C186.454 471.372 186.18 471.271 185.915 471.067C185.65 470.864 185.5 470.559 185.464 470.152C185.5 468.473 185.517 466.82 185.517 465.193C185.517 463.567 185.517 461.905 185.517 460.208C185.146 460.225 184.748 460.234 184.324 460.234C183.9 460.234 183.511 460.234 183.157 460.234C182.715 460.199 182.388 460.062 182.176 459.823C181.964 459.584 181.858 459.341 181.858 459.094C181.858 458.811 181.973 458.559 182.203 458.338C182.432 458.117 182.777 457.989 183.237 457.954C184.404 457.954 185.588 457.958 186.79 457.967C187.993 457.976 189.23 457.918 190.503 457.794C190.98 457.759 191.352 457.856 191.617 458.086C191.882 458.316 192.015 458.581 192.015 458.882C192.015 459.129 191.922 459.364 191.736 459.584C191.551 459.805 191.263 459.96 190.874 460.049C190.45 460.102 190.008 460.133 189.548 460.141C189.089 460.15 188.594 460.155 188.063 460.155C188.063 461.834 188.063 463.496 188.063 465.14C188.063 466.784 188.046 468.438 188.01 470.099Z"/>
<path d="M200.103 470.099C199.767 470.4 199.4 470.625 199.003 470.776C198.605 470.926 198.203 471.001 197.796 471.001C197.195 471.001 196.629 470.842 196.099 470.524C196.01 470.807 195.86 471.005 195.648 471.12C195.436 471.235 195.197 471.293 194.932 471.293C194.631 471.293 194.353 471.196 194.096 471.001C193.84 470.807 193.694 470.506 193.659 470.099C193.677 468.155 193.685 466.219 193.685 464.292C193.685 462.365 193.685 460.42 193.685 458.457C193.756 458.104 193.906 457.839 194.136 457.662C194.366 457.485 194.631 457.397 194.932 457.397C195.197 457.397 195.453 457.481 195.701 457.649C195.948 457.817 196.125 458.06 196.231 458.378L196.231 461.905C196.726 461.64 197.248 461.507 197.796 461.507C198.256 461.507 198.684 461.587 199.082 461.746C199.48 461.905 199.838 462.161 200.156 462.515C200.616 462.992 200.961 463.558 201.19 464.212C201.42 464.866 201.544 465.503 201.562 466.122C201.562 466.793 201.447 467.492 201.217 468.217C200.987 468.941 200.616 469.569 200.103 470.099ZM197.743 463.788C197.478 463.788 197.252 463.907 197.067 464.146C196.881 464.384 196.744 464.685 196.656 465.047C196.567 465.41 196.523 465.803 196.523 466.228C196.523 466.652 196.572 467.045 196.669 467.408C196.766 467.77 196.903 468.075 197.08 468.323C197.257 468.57 197.486 468.694 197.769 468.694C197.928 468.694 198.088 468.632 198.247 468.508C198.406 468.384 198.538 468.199 198.645 467.951C198.751 467.668 198.835 467.386 198.896 467.103C198.958 466.82 198.989 466.519 198.989 466.201C198.989 465.901 198.958 465.622 198.896 465.366C198.835 465.109 198.759 464.866 198.671 464.636C198.547 464.389 198.406 464.186 198.247 464.026C198.088 463.867 197.92 463.788 197.743 463.788Z"/>
</g>
<g fill="#ffffff" opacity="1" stroke="none" vectornator:layerName="Next">
<path d="M227.696 317.95C227.996 317.703 228.341 317.579 228.73 317.579C229.066 317.579 229.353 317.685 229.592 317.897C229.831 318.109 229.95 318.383 229.95 318.719C229.95 318.843 229.906 319.037 229.817 319.303C229.517 319.762 229.181 320.213 228.81 320.655C228.438 321.097 228.027 321.486 227.577 321.822C227.126 322.158 226.626 322.427 226.078 322.631C225.53 322.834 224.929 322.936 224.275 322.936C223.303 322.936 222.41 322.741 221.596 322.352C220.783 321.963 220.085 321.429 219.501 320.748C218.918 320.067 218.467 319.272 218.149 318.361C217.831 317.451 217.672 316.474 217.672 315.431C217.672 314.706 217.769 314.025 217.963 313.389C218.229 312.54 218.538 311.798 218.892 311.161C219.245 310.525 219.669 309.963 220.164 309.477C220.659 308.991 221.225 308.558 221.862 308.178C222.498 307.798 223.232 307.44 224.063 307.104L224.036 307.104C224.567 306.874 225.057 306.697 225.508 306.573C225.959 306.45 226.414 306.388 226.874 306.388C227.546 306.388 228.147 306.573 228.677 306.945C229.208 307.316 229.703 307.952 230.162 308.854C230.198 308.995 230.215 309.137 230.215 309.278C230.215 309.614 230.096 309.888 229.857 310.1C229.619 310.313 229.331 310.419 228.995 310.419C228.571 310.419 228.182 310.242 227.829 309.888C227.581 309.464 227.387 309.163 227.245 308.987C227.104 308.81 226.945 308.721 226.768 308.721C226.662 308.721 226.503 308.757 226.29 308.827C226.078 308.898 225.848 308.978 225.601 309.066L225.177 309.225C224.522 309.473 223.904 309.782 223.32 310.153C222.737 310.525 222.22 310.971 221.769 311.493C221.318 312.014 220.96 312.615 220.695 313.296C220.43 313.977 220.297 314.759 220.297 315.643C220.297 316.262 220.385 316.867 220.562 317.46C220.739 318.052 221 318.582 221.345 319.051C221.689 319.519 222.109 319.895 222.604 320.178C223.099 320.461 223.665 320.602 224.301 320.602C224.673 320.602 225.022 320.523 225.349 320.363C225.676 320.204 225.977 320.001 226.251 319.753C226.525 319.506 226.781 319.227 227.02 318.918C227.258 318.609 227.466 318.295 227.643 317.977L227.696 317.95Z"/>
<path d="M231.462 318.772C231.338 318.542 231.285 318.321 231.303 318.109C231.32 317.897 231.382 317.711 231.488 317.552C231.594 317.393 231.736 317.265 231.912 317.168C232.089 317.071 232.275 317.022 232.469 317.022C232.682 317.022 232.894 317.075 233.106 317.181C233.318 317.287 233.521 317.464 233.716 317.711L233.742 317.738C233.813 317.862 233.915 318.052 234.047 318.308C234.18 318.565 234.326 318.821 234.485 319.077C234.644 319.334 234.808 319.563 234.975 319.767C235.143 319.97 235.28 320.081 235.387 320.098C235.563 319.851 235.705 319.51 235.811 319.077C235.917 318.644 235.996 318.26 236.05 317.924C236.05 317.888 236.054 317.857 236.063 317.831C236.072 317.804 236.076 317.773 236.076 317.738C236.164 317.102 236.226 316.465 236.262 315.829C236.297 315.192 236.315 314.565 236.315 313.946C236.315 313.415 236.306 312.889 236.288 312.368C236.271 311.846 236.253 311.329 236.235 310.816C236.288 310.534 236.385 310.313 236.527 310.153C236.668 309.994 236.889 309.862 237.19 309.756C237.703 309.685 238.233 309.641 238.781 309.623C239.329 309.605 239.859 309.579 240.372 309.544C240.885 309.508 241.398 309.477 241.91 309.451C242.423 309.424 242.936 309.367 243.448 309.278C243.873 309.261 244.2 309.327 244.43 309.477C244.659 309.627 244.836 309.879 244.96 310.233L244.96 315.616C244.96 316.5 244.964 317.38 244.973 318.255C244.982 319.13 244.987 320.019 244.987 320.92C244.951 321.345 244.805 321.663 244.549 321.875C244.293 322.087 244.014 322.193 243.714 322.193C243.413 322.193 243.135 322.096 242.878 321.902C242.622 321.707 242.476 321.406 242.441 321L242.441 316.279C242.441 315.484 242.436 314.71 242.427 313.959C242.419 313.208 242.414 312.434 242.414 311.639L238.808 311.957C238.808 312.081 238.812 312.209 238.821 312.341C238.83 312.474 238.834 312.593 238.834 312.699C238.834 313 238.838 313.309 238.847 313.627C238.856 313.946 238.861 314.264 238.861 314.582C238.861 315.643 238.799 316.713 238.675 317.791C238.551 318.869 238.286 319.86 237.879 320.761C237.596 321.327 237.252 321.738 236.845 321.994C236.438 322.251 235.996 322.379 235.519 322.379C235.042 322.379 234.573 322.26 234.114 322.021C233.654 321.782 233.23 321.442 232.841 321C232.629 320.735 232.434 320.456 232.257 320.165C232.08 319.873 231.904 319.577 231.727 319.276L231.462 318.772Z"/>
<path d="M257.53 314.874C257.247 315.457 256.814 315.948 256.231 316.346C255.647 316.744 255.002 317.075 254.295 317.34C253.588 317.605 252.858 317.813 252.107 317.963C251.356 318.114 250.671 318.233 250.052 318.321C250.388 319.064 250.892 319.656 251.563 320.098C252.235 320.54 253.04 320.717 253.977 320.629C254.542 320.54 255.082 320.394 255.594 320.191C256.107 319.988 256.637 319.736 257.185 319.435C257.468 319.311 257.733 319.258 257.981 319.276C258.229 319.294 258.445 319.351 258.631 319.448C258.816 319.546 258.958 319.678 259.055 319.846C259.152 320.014 259.201 320.187 259.201 320.363C259.201 320.788 258.936 321.159 258.405 321.477C257.68 321.866 256.863 322.211 255.952 322.511C255.042 322.812 254.118 322.962 253.181 322.962C252.598 322.962 252.036 322.887 251.497 322.737C250.958 322.587 250.458 322.335 249.999 321.981C249.026 321.239 248.297 320.328 247.811 319.25C247.325 318.171 247.082 317.057 247.082 315.908C247.082 315.272 247.157 314.648 247.307 314.039C247.457 313.429 247.683 312.854 247.983 312.315C248.284 311.776 248.659 311.276 249.11 310.816C249.561 310.357 250.096 309.968 250.715 309.65C251.44 309.314 252.271 309.146 253.208 309.146C254.038 309.146 254.816 309.283 255.541 309.557C256.266 309.831 256.854 310.22 257.305 310.724C257.756 311.227 258.021 311.829 258.1 312.527C258.18 313.225 257.99 314.008 257.53 314.874ZM249.787 314.556C249.716 314.821 249.663 315.077 249.627 315.325C249.592 315.572 249.583 315.82 249.601 316.067C249.636 316.067 249.694 316.058 249.773 316.041C249.853 316.023 249.91 316.014 249.946 316.014C250.423 315.944 250.909 315.873 251.404 315.802C251.899 315.731 252.377 315.625 252.836 315.484C253.296 315.342 253.733 315.144 254.149 314.887C254.564 314.631 254.931 314.264 255.25 313.787C255.55 313.345 255.647 312.956 255.541 312.62C255.435 312.284 255.227 312.014 254.918 311.811C254.609 311.608 254.242 311.471 253.817 311.4C253.393 311.329 253.013 311.329 252.677 311.4C252.271 311.471 251.908 311.621 251.59 311.851C251.272 312.081 250.989 312.35 250.741 312.66C250.494 312.969 250.29 313.292 250.131 313.627C249.972 313.963 249.857 314.273 249.787 314.556Z"/>
<path d="M263.179 323.121C263.143 323.546 262.998 323.864 262.741 324.076C262.485 324.288 262.206 324.394 261.906 324.394C261.605 324.394 261.322 324.293 261.057 324.089C260.792 323.886 260.642 323.581 260.606 323.174C260.606 322.679 260.606 322.18 260.606 321.676C260.606 321.172 260.598 320.664 260.58 320.151C260.721 319.444 261.199 319.082 262.012 319.064L263.789 319.064C264.213 318.074 264.58 316.995 264.889 315.829C265.199 314.662 265.353 313.495 265.353 312.328C265.353 311.745 265.3 311.188 265.194 310.657C265.071 309.773 265.521 309.287 266.547 309.199C267.537 309.199 268.536 309.194 269.543 309.185C270.551 309.177 271.559 309.163 272.567 309.146C272.867 309.234 273.097 309.353 273.256 309.504C273.415 309.654 273.539 309.862 273.627 310.127C273.627 311.63 273.627 313.106 273.627 314.556C273.627 316.005 273.636 317.482 273.654 318.984L275.59 318.984C275.89 319.073 276.12 319.192 276.279 319.342C276.438 319.493 276.562 319.709 276.651 319.992C276.651 320.257 276.651 320.531 276.651 320.814C276.651 321.097 276.659 321.371 276.677 321.636C276.695 321.902 276.708 322.167 276.717 322.432C276.726 322.697 276.73 322.953 276.73 323.201C276.695 323.643 276.549 323.97 276.293 324.182C276.036 324.394 275.758 324.5 275.457 324.5C275.157 324.5 274.874 324.399 274.609 324.195C274.343 323.992 274.193 323.687 274.158 323.281C274.158 323.051 274.153 322.83 274.145 322.618C274.136 322.405 274.122 322.176 274.105 321.928C274.105 321.804 274.1 321.703 274.092 321.623C274.083 321.544 274.078 321.433 274.078 321.292C273.459 321.292 272.867 321.296 272.301 321.305C271.736 321.314 271.143 321.318 270.525 321.318C269.252 321.336 268.027 321.349 266.852 321.358C265.676 321.367 264.452 321.371 263.179 321.371L263.179 323.121ZM267.899 312.275C267.899 313.389 267.767 314.534 267.501 315.709C267.236 316.885 266.9 318.003 266.494 319.064C267.289 319.046 268.054 319.033 268.788 319.024C269.521 319.015 270.286 319.011 271.082 319.011L271.082 311.453C270.816 311.453 270.542 311.457 270.259 311.466C269.977 311.475 269.711 311.479 269.464 311.479L267.873 311.479C267.89 311.621 267.899 311.753 267.899 311.877C267.899 312.001 267.899 312.134 267.899 312.275Z"/>
<path d="M277.605 310.816C277.552 310.357 277.645 309.999 277.884 309.742C278.122 309.486 278.419 309.358 278.772 309.358C278.984 309.358 279.201 309.415 279.422 309.53C279.643 309.645 279.851 309.826 280.045 310.074C280.363 311.17 280.792 312.218 281.331 313.216C281.871 314.215 282.511 315.148 283.254 316.014C283.325 315.767 283.395 315.537 283.466 315.325C283.537 315.113 283.608 314.883 283.678 314.635C283.926 313.84 284.164 313.044 284.394 312.248C284.624 311.453 284.845 310.648 285.057 309.835C285.375 309.34 285.782 309.093 286.277 309.093C286.595 309.093 286.887 309.216 287.152 309.464C287.417 309.711 287.541 310.047 287.524 310.472C287.294 311.285 287.064 312.094 286.834 312.898C286.604 313.703 286.374 314.503 286.145 315.298C285.879 316.235 285.601 317.199 285.309 318.189C285.017 319.179 284.721 320.187 284.421 321.212C284.368 321.371 284.306 321.592 284.235 321.875C284.164 322.158 284.08 322.45 283.983 322.75C283.886 323.051 283.784 323.347 283.678 323.639C283.572 323.93 283.466 324.173 283.36 324.368C282.971 325.04 282.427 325.552 281.729 325.906C281.031 326.26 280.284 326.436 279.488 326.436C278.869 326.436 278.268 326.33 277.685 326.118C277.101 325.906 276.553 325.57 276.041 325.11C275.722 324.792 275.563 324.465 275.563 324.129C275.563 323.829 275.674 323.577 275.895 323.373C276.116 323.17 276.403 323.068 276.757 323.068C277.11 323.068 277.42 323.166 277.685 323.36C277.932 323.608 278.229 323.811 278.573 323.97C278.918 324.129 279.267 324.209 279.621 324.209C280.116 324.209 280.549 323.988 280.92 323.546C281.044 323.404 281.168 323.174 281.292 322.856C281.415 322.538 281.543 322.158 281.676 321.716C281.809 321.274 281.937 320.797 282.061 320.284C282.184 319.771 282.317 319.258 282.458 318.746C281.327 317.65 280.341 316.416 279.501 315.046C278.662 313.676 278.03 312.266 277.605 310.816Z"/>
<path d="M289.751 309.835C289.822 309.482 289.972 309.216 290.202 309.04C290.432 308.863 290.697 308.774 290.998 308.774C291.263 308.774 291.519 308.858 291.767 309.026C292.014 309.194 292.191 309.437 292.297 309.756L292.297 314.609C292.704 314.538 293.004 314.485 293.199 314.45C293.393 314.414 293.605 314.379 293.835 314.344C293.924 313.53 294.118 312.735 294.419 311.957C294.719 311.179 295.179 310.489 295.798 309.888C296.169 309.535 296.562 309.274 296.978 309.106C297.393 308.938 297.804 308.854 298.211 308.854C298.635 308.854 299.046 308.934 299.444 309.093C299.842 309.252 300.213 309.468 300.558 309.742C300.903 310.016 301.208 310.339 301.473 310.71C301.738 311.082 301.95 311.479 302.109 311.904C302.321 312.469 302.489 313.057 302.613 313.667C302.737 314.277 302.799 314.953 302.799 315.696C302.799 316.633 302.684 317.579 302.454 318.534C302.224 319.488 301.826 320.363 301.261 321.159C300.854 321.725 300.399 322.14 299.895 322.405C299.391 322.671 298.883 322.803 298.37 322.803C297.539 322.803 296.77 322.511 296.063 321.928C295.356 321.345 294.825 320.584 294.472 319.647C294.259 319.17 294.105 318.675 294.008 318.162C293.91 317.65 293.844 317.163 293.809 316.704L292.297 316.916L292.297 321.53C292.262 321.955 292.116 322.273 291.859 322.485C291.603 322.697 291.325 322.803 291.024 322.803C290.724 322.803 290.445 322.706 290.189 322.511C289.932 322.317 289.787 322.016 289.751 321.61L289.751 309.835ZM296.381 314.662C296.293 315.21 296.271 315.798 296.315 316.425C296.359 317.053 296.461 317.65 296.62 318.215C296.69 318.463 296.783 318.724 296.898 318.998C297.013 319.272 297.141 319.519 297.283 319.74C297.424 319.961 297.579 320.142 297.747 320.284C297.915 320.425 298.087 320.496 298.264 320.496C298.441 320.496 298.604 320.439 298.754 320.324C298.905 320.209 299.042 320.067 299.166 319.899C299.289 319.731 299.4 319.555 299.497 319.369C299.594 319.183 299.669 319.02 299.722 318.878C299.864 318.489 299.988 317.99 300.094 317.38C300.2 316.77 300.253 316.138 300.253 315.484C300.253 315.042 300.222 314.595 300.16 314.145C300.098 313.694 299.996 313.278 299.855 312.898C299.714 312.518 299.532 312.178 299.311 311.877C299.09 311.577 298.821 311.347 298.503 311.188C298.114 311.17 297.795 311.281 297.548 311.519C297.3 311.758 297.097 312.054 296.938 312.408C296.779 312.761 296.659 313.146 296.58 313.561C296.5 313.977 296.434 314.344 296.381 314.662Z"/>
<path d="M304.761 309.862C304.832 309.508 304.987 309.243 305.225 309.066C305.464 308.889 305.725 308.801 306.008 308.801C306.273 308.801 306.533 308.885 306.79 309.053C307.046 309.221 307.227 309.464 307.333 309.782C307.316 310.277 307.298 310.781 307.28 311.294C307.263 311.806 307.254 312.319 307.254 312.832C307.254 313.451 307.272 314.078 307.307 314.715C307.342 315.351 307.413 315.979 307.519 316.598C307.625 317.216 307.767 317.822 307.943 318.414C308.12 319.006 308.35 319.568 308.633 320.098C308.845 320.293 308.987 320.385 309.057 320.377C309.128 320.368 309.181 320.363 309.216 320.363C309.358 320.381 309.451 320.377 309.495 320.35C309.539 320.324 309.614 320.275 309.72 320.204C310.374 319.002 310.825 317.561 311.073 315.882C311.32 314.202 311.488 312.293 311.577 310.153C311.665 309.853 311.824 309.627 312.054 309.477C312.284 309.327 312.531 309.252 312.796 309.252C313.168 309.252 313.473 309.393 313.711 309.676C313.95 309.959 314.069 310.26 314.069 310.578C314.052 311.09 314.038 311.537 314.03 311.917C314.021 312.297 314.016 312.664 314.016 313.018C314.016 313.672 314.038 314.348 314.083 315.046C314.127 315.745 314.206 316.416 314.321 317.062C314.436 317.707 314.604 318.304 314.825 318.852C315.046 319.4 315.333 319.851 315.687 320.204L316.032 320.31L316.085 320.31C316.067 320.31 316.129 320.293 316.271 320.257C316.695 319.851 317 319.338 317.185 318.719C317.371 318.1 317.517 317.473 317.623 316.836C317.817 315.669 317.946 314.507 318.008 313.349C318.069 312.191 318.118 311.02 318.153 309.835C318.224 309.482 318.379 309.216 318.617 309.04C318.856 308.863 319.126 308.774 319.426 308.774C319.674 308.774 319.926 308.858 320.182 309.026C320.438 309.194 320.62 309.437 320.726 309.756C320.655 311.029 320.589 312.279 320.527 313.508C320.465 314.737 320.337 315.961 320.142 317.181C320.036 317.8 319.89 318.427 319.705 319.064C319.519 319.7 319.276 320.279 318.975 320.801C318.675 321.323 318.29 321.751 317.822 322.087C317.353 322.423 316.783 322.591 316.111 322.591C315.157 322.591 314.379 322.29 313.778 321.689C313.512 321.424 313.3 321.181 313.141 320.96C312.982 320.739 312.841 320.505 312.717 320.257L312.637 320.178L312.611 320.151C312.469 320.452 312.324 320.721 312.173 320.96C312.023 321.199 311.851 321.415 311.656 321.61C311.25 321.981 310.861 322.246 310.489 322.405C310.118 322.565 309.676 322.644 309.163 322.644C308.651 322.644 308.151 322.538 307.665 322.326C307.179 322.114 306.785 321.769 306.485 321.292C306.114 320.69 305.809 320.045 305.57 319.356C305.331 318.666 305.15 317.955 305.026 317.221C304.903 316.487 304.819 315.749 304.774 315.006C304.73 314.264 304.708 313.521 304.708 312.779C304.708 312.284 304.712 311.793 304.721 311.307C304.73 310.821 304.743 310.348 304.761 309.888L304.761 309.862ZM322.105 322.83C322.105 323.448 322.003 323.966 321.8 324.381C321.596 324.797 321.238 325.128 320.726 325.376C319.966 325.729 319.17 325.906 318.339 325.906C316.801 325.906 316.032 325.57 316.032 324.898C316.032 324.598 316.133 324.363 316.337 324.195C316.54 324.027 316.792 323.944 317.093 323.944C317.375 323.944 317.623 323.966 317.835 324.01C318.047 324.054 318.251 324.076 318.445 324.076C319.417 324.076 319.93 323.652 319.983 322.803C319.753 322.556 319.214 322.405 318.366 322.352C317.181 322.317 316.589 322.087 316.589 321.663C316.589 321.627 316.593 321.579 316.602 321.517C316.611 321.455 316.637 321.358 316.682 321.225C316.726 321.093 316.788 320.911 316.867 320.682C316.947 320.452 317.066 320.151 317.225 319.78C317.402 319.356 317.738 319.144 318.233 319.144C318.958 319.144 319.32 319.488 319.32 320.178C319.32 320.372 319.294 320.558 319.241 320.735C321.15 321 322.105 321.698 322.105 322.83Z"/>
<path d="M328.814 313.389C328.867 313.371 329.013 313.318 329.252 313.23C329.49 313.141 329.742 313.053 330.008 312.965C330.273 312.876 330.511 312.788 330.724 312.699C330.936 312.611 331.051 312.558 331.068 312.54C330.98 312.01 330.838 311.585 330.644 311.267C330.432 311.02 330.158 310.896 329.822 310.896C329.468 310.896 329.097 310.976 328.708 311.135C328.319 311.294 328.019 311.462 327.806 311.639C327.612 311.762 327.409 311.917 327.196 312.103C326.984 312.288 326.728 312.514 326.427 312.779C326.251 312.885 326.087 312.956 325.937 312.991C325.787 313.026 325.641 313.044 325.499 313.044C325.146 313.044 324.858 312.947 324.637 312.752C324.416 312.558 324.306 312.302 324.306 311.983C324.306 311.718 324.377 311.471 324.518 311.241C324.872 310.923 325.238 310.609 325.619 310.299C325.999 309.99 326.401 309.711 326.825 309.464C327.126 309.269 327.453 309.102 327.806 308.96C328.16 308.819 328.514 308.721 328.867 308.668C329.115 308.633 329.384 308.615 329.676 308.615C329.968 308.615 330.229 308.633 330.458 308.668C331.448 308.863 332.178 309.283 332.646 309.928C333.115 310.573 333.42 311.338 333.561 312.222C333.65 312.788 333.698 313.367 333.707 313.959C333.716 314.551 333.72 315.139 333.72 315.723L333.72 316.279C333.72 316.668 333.725 317.022 333.733 317.34C333.742 317.658 333.787 317.959 333.866 318.242C333.946 318.525 334.074 318.794 334.251 319.051C334.427 319.307 334.684 319.577 335.02 319.86C335.25 320.142 335.364 320.434 335.364 320.735C335.364 321.177 335.166 321.495 334.768 321.689C334.37 321.884 333.897 321.857 333.349 321.61C332.978 321.309 332.673 321.026 332.434 320.761C332.195 320.496 331.996 320.222 331.837 319.939C331.13 320.717 330.321 321.38 329.411 321.928C328.5 322.476 327.568 322.75 326.613 322.75C326.1 322.75 325.619 322.573 325.168 322.22C324.717 321.866 324.35 321.442 324.067 320.947C323.625 320.151 323.404 319.307 323.404 318.414C323.404 317.521 323.714 316.677 324.332 315.882C324.898 315.245 325.583 314.746 326.388 314.383C327.192 314.021 328.001 313.689 328.814 313.389ZM331.148 315.829C331.148 315.669 331.152 315.546 331.161 315.457C331.17 315.369 331.174 315.227 331.174 315.033C330.945 315.121 330.715 315.205 330.485 315.285C330.255 315.365 330.025 315.448 329.795 315.537C329.512 315.643 329.146 315.776 328.695 315.935C328.244 316.094 327.806 316.297 327.382 316.545C326.958 316.792 326.6 317.079 326.308 317.406C326.016 317.734 325.888 318.109 325.924 318.534C325.959 318.852 326.038 319.174 326.162 319.502C326.286 319.829 326.587 320.116 327.064 320.363C327.223 320.399 327.484 320.293 327.846 320.045C328.209 319.798 328.602 319.488 329.026 319.117C329.451 318.746 329.862 318.348 330.259 317.924C330.657 317.499 330.953 317.119 331.148 316.783L331.148 315.829Z"/>
<path d="M336.982 320.947C337.512 320.363 337.968 319.868 338.348 319.462C338.728 319.055 339.059 318.702 339.342 318.401C339.625 318.1 339.882 317.831 340.111 317.592C340.341 317.353 340.571 317.128 340.801 316.916C340.288 316.739 339.798 316.483 339.329 316.147C338.861 315.811 338.45 315.418 338.096 314.967C337.742 314.516 337.473 314.03 337.287 313.508C337.101 312.987 337.053 312.443 337.141 311.877C337.23 311.4 337.415 310.976 337.698 310.604C337.981 310.233 338.321 309.924 338.719 309.676C339.117 309.429 339.554 309.261 340.032 309.172C340.509 309.084 340.995 309.075 341.49 309.146C341.791 309.199 342.136 309.3 342.525 309.451C342.914 309.601 343.232 309.729 343.479 309.835C343.709 309.605 344.001 309.49 344.354 309.49C344.637 309.49 344.903 309.566 345.15 309.716C345.398 309.866 345.566 310.109 345.654 310.445L345.654 321.477C345.619 321.902 345.477 322.22 345.23 322.432C344.982 322.644 344.699 322.75 344.381 322.75C344.098 322.75 343.824 322.653 343.559 322.458C343.294 322.264 343.143 321.963 343.108 321.557L343.108 318.083C342.242 318.984 341.49 319.776 340.854 320.456C340.217 321.137 339.581 321.813 338.945 322.485C338.75 322.609 338.573 322.693 338.414 322.737C338.255 322.781 338.105 322.803 337.963 322.803C337.61 322.803 337.318 322.702 337.088 322.498C336.858 322.295 336.743 322.034 336.743 321.716C336.743 321.61 336.761 321.49 336.796 321.358C336.832 321.225 336.894 321.088 336.982 320.947ZM339.608 312.832C339.943 313.504 340.438 314.025 341.093 314.397C341.747 314.768 342.419 315.024 343.108 315.166L343.108 312.461C342.754 312.178 342.494 311.983 342.326 311.877C342.158 311.771 341.968 311.674 341.756 311.585C341.455 311.479 341.181 311.426 340.933 311.426C340.562 311.426 340.235 311.537 339.952 311.758C339.669 311.979 339.554 312.337 339.608 312.832Z"/>
</g>
<g fill="#ffffff" opacity="1" stroke="none" vectornator:layerName="Alphabet">
<path d="M277.68 87.1456C277.645 87.5876 277.508 87.9191 277.269 88.1401C277.03 88.3611 276.743 88.4716 276.407 88.4716C276.16 88.4716 275.917 88.4009 275.678 88.2595C275.439 88.118 275.249 87.897 275.108 87.5965C275.019 86.8009 274.882 86.023 274.697 85.2628C274.511 84.5026 274.277 83.7247 273.994 82.9291C272.88 82.9291 271.766 82.9379 270.653 82.9556C269.539 82.9733 268.416 82.9821 267.285 82.9821L267.232 82.9821C267.019 83.7247 266.82 84.4363 266.635 85.1169C266.449 85.7976 266.277 86.5269 266.118 87.3048C265.976 87.6937 265.791 87.9766 265.561 88.1534C265.331 88.3302 265.083 88.4186 264.818 88.4186C264.447 88.4186 264.124 88.2727 263.85 87.981C263.576 87.6893 263.492 87.3048 263.598 86.8274C264.164 84.2992 264.854 81.8329 265.667 79.4285C266.48 77.0241 267.506 74.6462 268.743 72.2948L268.717 72.3213C268.858 71.9501 269.167 71.7114 269.645 71.6053L269.618 71.6053C270.096 71.4462 270.52 71.5346 270.891 71.8705C271.333 72.2948 271.744 72.7677 272.124 73.2893C272.504 73.8108 272.858 74.3501 273.185 74.907C273.512 75.4639 273.817 76.0252 274.1 76.5909C274.383 77.1567 274.648 77.6959 274.896 78.2086C275.055 78.5445 275.223 78.9202 275.399 79.3357C275.576 79.7512 275.744 80.1622 275.903 80.5688C276.098 80.5688 276.31 80.5644 276.54 80.5556C276.77 80.5468 276.982 80.5423 277.176 80.5423C277.548 80.6661 277.822 80.834 277.998 81.0462C278.175 81.2584 278.264 81.4882 278.264 81.7357C278.264 81.9832 278.166 82.2175 277.972 82.4385C277.777 82.6595 277.477 82.8142 277.07 82.9026L276.752 82.9026C277.194 84.2816 277.503 85.6959 277.68 87.1456ZM271.554 77.1744C271.342 76.7854 271.125 76.3965 270.904 76.0075C270.683 75.6186 270.467 75.2738 270.255 74.9733C269.83 75.8749 269.437 76.7898 269.075 77.718C268.712 78.6462 268.354 79.6142 268.001 80.6219C268.902 80.6219 269.764 80.613 270.586 80.5954C271.408 80.5777 272.27 80.5688 273.172 80.5688C272.96 80.0561 272.739 79.57 272.509 79.1103C272.279 78.6506 272.049 78.1644 271.819 77.6517L271.554 77.1744Z"/>
<path d="M279.165 84.4937C279.041 84.2639 278.988 84.0429 279.006 83.8307C279.024 83.6186 279.086 83.4329 279.192 83.2738C279.298 83.1147 279.439 82.9865 279.616 82.8893C279.793 82.7921 279.978 82.7434 280.173 82.7434C280.385 82.7434 280.597 82.7965 280.809 82.9026C281.022 83.0086 281.225 83.1854 281.419 83.4329L281.446 83.4595C281.517 83.5832 281.618 83.7733 281.751 84.0296C281.883 84.286 282.029 84.5423 282.188 84.7987C282.348 85.055 282.511 85.2849 282.679 85.4882C282.847 85.6915 282.984 85.802 283.09 85.8197C283.267 85.5722 283.408 85.2318 283.514 84.7987C283.62 84.3655 283.7 83.981 283.753 83.6451C283.753 83.6097 283.757 83.5788 283.766 83.5523C283.775 83.5258 283.78 83.4948 283.78 83.4595C283.868 82.823 283.93 82.1865 283.965 81.5501C284.001 80.9136 284.018 80.286 284.018 79.6672C284.018 79.1368 284.009 78.6108 283.992 78.0893C283.974 77.5677 283.956 77.0506 283.939 76.5379C283.992 76.255 284.089 76.034 284.23 75.8749C284.372 75.7158 284.593 75.5832 284.893 75.4771C285.406 75.4064 285.937 75.3622 286.485 75.3445C287.033 75.3269 287.563 75.3003 288.076 75.265C288.588 75.2296 289.101 75.1987 289.614 75.1722C290.127 75.1456 290.639 75.0882 291.152 74.9998C291.576 74.9821 291.903 75.0484 292.133 75.1987C292.363 75.349 292.54 75.6009 292.664 75.9545L292.664 81.3379C292.664 82.2219 292.668 83.1014 292.677 83.9766C292.686 84.8517 292.69 85.7401 292.69 86.6418C292.655 87.0661 292.509 87.3843 292.253 87.5965C291.996 87.8086 291.718 87.9147 291.417 87.9147C291.117 87.9147 290.838 87.8175 290.582 87.623C290.325 87.4285 290.18 87.128 290.144 86.7213L290.144 82.0009C290.144 81.2053 290.14 80.4318 290.131 79.6805C290.122 78.9291 290.118 78.1556 290.118 77.36L286.511 77.6782C286.511 77.802 286.516 77.9302 286.524 78.0628C286.533 78.1954 286.538 78.3147 286.538 78.4208C286.538 78.7213 286.542 79.0307 286.551 79.349C286.56 79.6672 286.564 79.9854 286.564 80.3037C286.564 81.3644 286.502 82.434 286.378 83.5125C286.255 84.5909 285.99 85.581 285.583 86.4827C285.3 87.0484 284.955 87.4595 284.549 87.7158C284.142 87.9722 283.7 88.1003 283.223 88.1003C282.745 88.1003 282.277 87.981 281.817 87.7423C281.357 87.5037 280.933 87.1633 280.544 86.7213C280.332 86.4561 280.138 86.1777 279.961 85.886C279.784 85.5943 279.607 85.2981 279.43 84.9976L279.165 84.4937Z"/>
<path d="M301.574 73.0108C301.645 72.6572 301.795 72.3876 302.025 72.202C302.255 72.0164 302.52 71.9235 302.82 71.9235C303.103 71.9235 303.364 72.0075 303.603 72.1755C303.841 72.3434 304.005 72.5954 304.093 72.9313L304.093 76.7501C304.447 76.3965 304.862 76.1092 305.34 75.8882C305.817 75.6672 306.303 75.5567 306.798 75.5567C307.859 75.5567 308.77 75.9898 309.53 76.8561C310.078 77.5456 310.485 78.3235 310.75 79.1898C311.015 80.0561 311.156 80.9224 311.174 81.7887C311.209 82.6727 311.09 83.5965 310.816 84.56C310.542 85.5235 310.087 86.3412 309.45 87.013L309.477 87.013C308.699 87.8086 307.771 88.2064 306.692 88.2064C305.702 88.2064 304.836 87.8351 304.093 87.0926C304.076 87.3932 304.067 87.6672 304.067 87.9147C304.067 88.1622 304.067 88.4097 304.067 88.6572L304.067 90.7523C304.032 91.2119 303.895 91.5479 303.656 91.76C303.417 91.9722 303.139 92.0782 302.82 92.0782C302.52 92.0782 302.241 91.9766 301.985 91.7733C301.729 91.57 301.583 91.2561 301.548 90.8318L301.548 87.3843C301.282 87.6318 301.008 87.8307 300.725 87.981C300.443 88.1313 300.098 88.2506 299.691 88.339C299.302 88.4097 298.9 88.4053 298.485 88.3258C298.069 88.2462 297.693 88.1092 297.357 87.9147C297.128 87.7733 296.911 87.6142 296.708 87.4374C296.504 87.2606 296.323 87.0749 296.164 86.8805L296.164 86.907C295.598 86.2175 295.209 85.444 294.997 84.5865C294.785 83.7291 294.679 82.8672 294.679 82.0009C294.679 81.4351 294.737 80.8517 294.851 80.2506C294.966 79.6495 295.148 79.0661 295.395 78.5003C295.572 78.1114 295.793 77.7401 296.058 77.3865C296.323 77.0329 296.619 76.7235 296.946 76.4584C297.274 76.1932 297.623 75.981 297.994 75.8219C298.365 75.6628 298.754 75.5832 299.161 75.5832C299.567 75.5832 299.956 75.6584 300.328 75.8086C300.699 75.9589 301.061 76.2108 301.415 76.5644L301.574 76.7235L301.574 73.0108ZM304.783 79.455C304.482 80.1269 304.31 80.8473 304.266 81.6164C304.222 82.3854 304.323 83.1324 304.571 83.8572C304.659 84.0517 304.756 84.2683 304.862 84.507C304.969 84.7456 305.097 84.9666 305.247 85.17C305.397 85.3733 305.574 85.5412 305.777 85.6738C305.981 85.8064 306.215 85.8727 306.48 85.8727C306.869 85.8727 307.201 85.7224 307.475 85.4219C307.749 85.1213 307.97 84.7589 308.138 84.3346C308.306 83.9103 308.425 83.4683 308.496 83.0086C308.566 82.549 308.602 82.1688 308.602 81.8683C308.602 81.5854 308.566 81.2186 308.496 80.7677C308.425 80.3169 308.306 79.8793 308.138 79.455C307.97 79.0307 307.749 78.6639 307.475 78.3545C307.201 78.0451 306.86 77.8904 306.454 77.8904C306.012 77.8904 305.667 78.0628 305.419 78.4075C305.172 78.7523 304.96 79.1014 304.783 79.455ZM297.702 79.5611C297.543 79.8793 297.424 80.2241 297.344 80.5954C297.265 80.9666 297.216 81.3512 297.198 81.749C297.181 82.1468 297.203 82.5357 297.265 82.9158C297.327 83.2959 297.411 83.6539 297.517 83.9898C297.587 84.1666 297.671 84.37 297.769 84.5998C297.866 84.8296 297.981 85.0462 298.113 85.2495C298.246 85.4528 298.405 85.6252 298.591 85.7666C298.776 85.9081 298.993 85.9788 299.24 85.9788C299.629 85.9788 299.961 85.8285 300.235 85.528C300.509 85.2274 300.73 84.865 300.898 84.4407C301.066 84.0164 301.185 83.5788 301.256 83.128C301.327 82.6771 301.362 82.3014 301.362 82.0009C301.362 81.3821 301.274 80.7722 301.097 80.1711C300.92 79.57 300.628 79.0219 300.222 78.5269C299.921 78.1909 299.603 78.023 299.267 78.023C298.878 78.023 298.555 78.1954 298.299 78.5401C298.043 78.8849 297.844 79.2252 297.702 79.5611Z"/>
<path d="M318.175 79.1103C318.228 79.0926 318.374 79.0396 318.613 78.9512C318.851 78.8628 319.103 78.7744 319.369 78.686C319.634 78.5976 319.872 78.5092 320.085 78.4208C320.297 78.3324 320.412 78.2793 320.429 78.2617C320.341 77.7313 320.199 77.307 320.005 76.9887C319.793 76.7412 319.519 76.6175 319.183 76.6175C318.829 76.6175 318.458 76.697 318.069 76.8561C317.68 77.0153 317.38 77.1832 317.167 77.36C316.973 77.4838 316.77 77.6385 316.557 77.8241C316.345 78.0097 316.089 78.2351 315.788 78.5003C315.612 78.6064 315.448 78.6771 315.298 78.7125C315.148 78.7479 315.002 78.7655 314.86 78.7655C314.507 78.7655 314.219 78.6683 313.998 78.4738C313.777 78.2793 313.667 78.023 313.667 77.7048C313.667 77.4396 313.738 77.1921 313.879 76.9622C314.233 76.644 314.599 76.3302 314.98 76.0208C315.36 75.7114 315.762 75.4329 316.186 75.1854C316.487 74.9909 316.814 74.823 317.167 74.6816C317.521 74.5401 317.875 74.4429 318.228 74.3898C318.476 74.3545 318.745 74.3368 319.037 74.3368C319.329 74.3368 319.59 74.3545 319.819 74.3898C320.809 74.5843 321.539 75.0042 322.007 75.6495C322.476 76.2948 322.781 77.0595 322.922 77.9434C323.011 78.5092 323.059 79.0882 323.068 79.6805C323.077 80.2727 323.081 80.8606 323.081 81.444L323.081 82.0009C323.081 82.3898 323.086 82.7434 323.095 83.0617C323.103 83.3799 323.148 83.6805 323.227 83.9633C323.307 84.2462 323.435 84.5158 323.612 84.7722C323.788 85.0285 324.045 85.2981 324.381 85.581C324.611 85.8639 324.725 86.1556 324.725 86.4561C324.725 86.8981 324.527 87.2164 324.129 87.4108C323.731 87.6053 323.258 87.5788 322.71 87.3313C322.339 87.0307 322.034 86.7479 321.795 86.4827C321.556 86.2175 321.357 85.9434 321.198 85.6606C320.491 86.4385 319.682 87.1014 318.772 87.6495C317.861 88.1976 316.929 88.4716 315.974 88.4716C315.461 88.4716 314.98 88.2948 314.529 87.9412C314.078 87.5876 313.711 87.1633 313.428 86.6683C312.986 85.8727 312.765 85.0285 312.765 84.1357C312.765 83.2429 313.075 82.3987 313.693 81.6031C314.259 80.9666 314.944 80.4672 315.749 80.1048C316.553 79.7423 317.362 79.4108 318.175 79.1103ZM320.509 81.5501C320.509 81.3909 320.513 81.2672 320.522 81.1788C320.531 81.0904 320.535 80.949 320.535 80.7545C320.306 80.8429 320.076 80.9269 319.846 81.0064C319.616 81.086 319.386 81.17 319.156 81.2584C318.874 81.3644 318.507 81.497 318.056 81.6561C317.605 81.8153 317.167 82.0186 316.743 82.2661C316.319 82.5136 315.961 82.8009 315.669 83.128C315.377 83.455 315.249 83.8307 315.285 84.255C315.32 84.5733 315.399 84.8959 315.523 85.223C315.647 85.5501 315.948 85.8374 316.425 86.0849C316.584 86.1202 316.845 86.0142 317.207 85.7666C317.57 85.5191 317.963 85.2097 318.387 84.8385C318.812 84.4672 319.223 84.0694 319.62 83.6451C320.018 83.2208 320.314 82.8407 320.509 82.5048L320.509 81.5501Z"/>
<path d="M328.412 88.3921C328.199 88.3921 327.961 88.3744 327.696 88.339C327.43 88.3037 327.192 88.2285 326.98 88.1136C326.767 87.9987 326.604 87.844 326.489 87.6495C326.374 87.455 326.37 87.1987 326.476 86.8805L326.476 76.1401C326.511 75.9456 326.569 75.7865 326.648 75.6628C326.728 75.539 326.865 75.4064 327.059 75.265C327.554 75.0528 328.058 74.8584 328.571 74.6816C329.083 74.5048 329.605 74.3722 330.135 74.2838C330.666 74.1954 331.201 74.1688 331.74 74.2042C332.279 74.2396 332.823 74.3722 333.371 74.602C334.113 74.9379 334.732 75.4153 335.227 76.034C335.722 76.6528 335.97 77.3335 335.97 78.076C335.97 78.6418 335.824 79.1589 335.532 79.6274C335.24 80.0959 334.865 80.507 334.405 80.8606C335.077 81.2495 335.598 81.7401 335.97 82.3324C336.341 82.9247 336.527 83.539 336.527 84.1755C336.527 84.6882 336.394 85.1921 336.129 85.6871C335.864 86.1821 335.457 86.6506 334.909 87.0926C334.502 87.4108 334.034 87.6539 333.503 87.8219C332.973 87.9898 332.416 88.1136 331.833 88.1932C331.249 88.2727 330.666 88.3258 330.082 88.3523C329.499 88.3788 328.942 88.3921 328.412 88.3921ZM330.904 82.1865C330.551 82.1512 330.228 82.1291 329.937 82.1202C329.645 82.1114 329.349 82.107 329.048 82.107L329.048 86.1114C329.455 86.1114 329.888 86.1158 330.348 86.1247C330.807 86.1335 331.249 86.1114 331.674 86.0584C332.098 86.0053 332.487 85.8992 332.84 85.7401C333.194 85.581 333.477 85.3247 333.689 84.9711C333.954 84.5291 334.038 84.149 333.941 83.8307C333.844 83.5125 333.64 83.2385 333.331 83.0086C333.022 82.7788 332.655 82.5976 332.23 82.465C331.806 82.3324 331.399 82.2396 331.011 82.1865L330.904 82.1865ZM329.048 79.8263C329.349 79.8263 329.658 79.8307 329.976 79.8396C330.295 79.8484 330.604 79.8617 330.904 79.8793C331.117 79.8617 331.373 79.7998 331.674 79.6937C331.974 79.5876 332.257 79.4506 332.522 79.2827C332.787 79.1147 333.013 78.9202 333.198 78.6992C333.384 78.4782 333.477 78.2351 333.477 77.97C333.477 77.528 333.296 77.1876 332.933 76.949C332.571 76.7103 332.142 76.5556 331.647 76.4849C331.152 76.4142 330.661 76.423 330.175 76.5114C329.689 76.5998 329.313 76.7412 329.048 76.9357L329.048 79.8263Z"/>
<path d="M338.675 76.1136C338.745 75.76 338.9 75.4948 339.139 75.318C339.377 75.1412 339.638 75.0528 339.921 75.0528C340.186 75.0528 340.447 75.1324 340.703 75.2915C340.96 75.4506 341.141 75.6981 341.247 76.034C341.247 76.7059 341.247 77.3379 341.247 77.9302C341.247 78.5224 341.243 79.1147 341.234 79.707C341.225 80.2992 341.216 80.8959 341.207 81.497C341.198 82.0981 341.194 82.7346 341.194 83.4064L343.13 80.6749L346.816 75.5302C346.975 75.3887 347.143 75.2915 347.32 75.2385C347.497 75.1854 347.665 75.1589 347.824 75.1589C348.124 75.1589 348.385 75.2385 348.606 75.3976C348.827 75.5567 348.982 75.7954 349.07 76.1136L349.07 87.4108C349.035 87.8528 348.893 88.1799 348.646 88.3921C348.398 88.6042 348.116 88.7103 347.797 88.7103C347.514 88.7103 347.24 88.6086 346.975 88.4053C346.71 88.202 346.56 87.897 346.524 87.4904L346.524 80.1976L346.339 80.4097C345.455 81.6119 344.571 82.8318 343.687 84.0694C342.803 85.307 341.919 86.5887 341.035 87.9147C340.717 88.286 340.337 88.4716 339.895 88.4716C339.576 88.4716 339.293 88.37 339.046 88.1666C338.798 87.9633 338.657 87.676 338.622 87.3048C338.639 85.4307 338.653 83.57 338.661 81.7224C338.67 79.8749 338.675 78.0142 338.675 76.1401L338.675 76.1136Z"/>
<path d="M356.973 87.3313C356.955 87.7556 356.818 88.0738 356.562 88.286C356.306 88.4981 356.018 88.6042 355.7 88.6042C355.417 88.6042 355.143 88.5026 354.878 88.2992C354.613 88.0959 354.462 87.7909 354.427 87.3843C354.462 85.7048 354.48 84.0517 354.48 82.4252C354.48 80.7987 354.48 79.1368 354.48 77.4396C354.109 77.4572 353.711 77.4661 353.287 77.4661C352.862 77.4661 352.474 77.4661 352.12 77.4661C351.678 77.4307 351.351 77.2937 351.139 77.055C350.927 76.8164 350.82 76.5733 350.82 76.3258C350.82 76.0429 350.935 75.7909 351.165 75.57C351.395 75.349 351.74 75.2208 352.199 75.1854C353.366 75.1854 354.551 75.1898 355.753 75.1987C356.955 75.2075 358.193 75.1501 359.466 75.0263C359.943 74.9909 360.314 75.0882 360.58 75.318C360.845 75.5479 360.977 75.813 360.977 76.1136C360.977 76.3611 360.885 76.5954 360.699 76.8164C360.513 77.0374 360.226 77.1921 359.837 77.2805C359.413 77.3335 358.971 77.3644 358.511 77.3733C358.051 77.3821 357.556 77.3865 357.026 77.3865C357.026 79.0661 357.026 80.728 357.026 82.3722C357.026 84.0164 357.008 85.6694 356.973 87.3313Z"/>
</g>
<g fill="#ffffff" opacity="1" stroke="none" vectornator:layerName="Help">
<path d="M73.9724 86.907C73.9371 87.3313 73.7912 87.6495 73.5348 87.8617C73.2785 88.0738 72.9912 88.1799 72.673 88.1799C72.3901 88.1799 72.1161 88.0827 71.8509 87.8882C71.5857 87.6937 71.4354 87.3932 71.4 86.9865L71.4 80.5954C71.4 79.5346 71.4045 78.465 71.4133 77.3865C71.4221 76.3081 71.4266 75.2296 71.4266 74.1512C71.4796 73.8683 71.5768 73.6473 71.7183 73.4882C71.8597 73.3291 72.0807 73.2053 72.3813 73.1169C73 73.0285 73.6232 72.9799 74.2509 72.9711C74.8785 72.9622 75.5194 72.9578 76.1735 72.9578C76.7746 72.9578 77.3757 72.949 77.9768 72.9313C78.5779 72.9136 79.1879 72.8606 79.8067 72.7722C80.2133 72.7545 80.5359 72.8208 80.7746 72.9711C81.0133 73.1213 81.1945 73.3733 81.3183 73.7269C81.3183 74.8937 81.3183 76.0208 81.3183 77.1081C81.3183 78.1954 81.3271 79.2782 81.3448 80.3567C81.3625 81.4351 81.3757 82.518 81.3846 83.6053C81.3934 84.6926 81.3978 85.8108 81.3978 86.96C81.3625 87.3843 81.2166 87.7026 80.9603 87.9147C80.7039 88.1269 80.4255 88.2329 80.1249 88.2329C79.8243 88.2329 79.5415 88.1357 79.2763 87.9412C79.0111 87.7468 78.8608 87.4462 78.8255 87.0396C78.8255 85.9965 78.8255 84.9887 78.8255 84.0164C78.8255 83.044 78.8166 82.0716 78.7989 81.0992C78.7813 80.1976 78.768 79.234 78.7592 78.2086C78.7503 77.1832 78.7459 76.1843 78.7459 75.2119C78.5868 75.2296 78.4409 75.2385 78.3083 75.2385C78.1757 75.2385 78.021 75.2385 77.8442 75.2385C77.5967 75.2385 77.358 75.2385 77.1282 75.2385C76.8984 75.2385 76.6597 75.2296 76.4122 75.2119C76.2531 75.2119 76.0365 75.2075 75.7625 75.1987C75.4884 75.1898 75.263 75.1854 75.0862 75.1854C74.8564 75.1854 74.6708 75.1854 74.5293 75.1854C74.3879 75.1854 74.2111 75.2031 73.9989 75.2385C73.9989 76.2108 73.9945 77.1788 73.9857 78.1423C73.9768 79.1059 73.9724 80.0738 73.9724 81.0462L73.9724 86.907Z"/>
<path d="M84.5271 81.6296C84.5625 81.0108 84.642 80.3655 84.7658 79.6937C84.8895 79.0219 85.1017 78.3766 85.4022 77.7578C85.6144 77.3335 85.8796 76.9313 86.1978 76.5512C86.5161 76.1711 86.8696 75.844 87.2586 75.57C87.6476 75.2959 88.063 75.0749 88.505 74.907C88.947 74.739 89.3978 74.655 89.8575 74.655C90.7768 74.655 91.6166 74.9821 92.3768 75.6363C93.2255 76.4142 93.8487 77.3247 94.2464 78.3677C94.6442 79.4108 94.8608 80.4716 94.8962 81.5501C94.9138 82.2749 94.8034 83.0617 94.5647 83.9103C94.326 84.7589 93.9724 85.5412 93.5039 86.2572C93.0354 86.9733 92.4564 87.5611 91.7669 88.0208C91.0774 88.4805 90.2818 88.6661 89.3801 88.5777C88.6376 88.507 87.9835 88.286 87.4177 87.9147C86.852 87.5434 86.3481 87.0484 85.9061 86.4296C85.3934 85.6871 85.0487 84.9092 84.8719 84.0959C84.6951 83.2827 84.5801 82.4606 84.5271 81.6296ZM87.6564 78.7921C87.2851 79.676 87.0951 80.6351 87.0862 81.6694C87.0774 82.7037 87.2851 83.6716 87.7094 84.5733C87.9039 84.9622 88.1691 85.3468 88.505 85.7269C88.8409 86.107 89.2564 86.297 89.7514 86.297C90.105 86.297 90.4542 86.1512 90.7989 85.8595C91.1437 85.5677 91.4398 85.1655 91.6873 84.6528C91.8818 84.2108 92.0365 83.7335 92.1514 83.2208C92.2663 82.7081 92.3238 82.1777 92.3238 81.6296C92.3238 81.2053 92.2663 80.7235 92.1514 80.1843C92.0365 79.6451 91.8685 79.1324 91.6476 78.6462C91.4266 78.16 91.1569 77.749 90.8387 77.413C90.5205 77.0771 90.1669 76.9092 89.7779 76.9092C89.5481 76.9092 89.3271 76.9711 89.115 77.0948C88.9028 77.2186 88.7039 77.3733 88.5183 77.5589C88.3326 77.7445 88.1691 77.9479 88.0277 78.1688C87.8862 78.3898 87.7625 78.5976 87.6564 78.7921Z"/>
<path d="M99.3779 87.57C99.2719 87.8882 99.1039 88.1224 98.8741 88.2727C98.6442 88.423 98.3967 88.4981 98.1315 88.4981C97.8487 88.4981 97.579 88.4009 97.3227 88.2064C97.0663 88.0119 96.9205 87.7114 96.8851 87.3048C96.9735 86.3677 97.0398 85.4351 97.084 84.507C97.1282 83.5788 97.168 82.6462 97.2034 81.7092C97.2387 80.8429 97.2741 79.981 97.3094 79.1235C97.3448 78.2661 97.3978 77.4042 97.4685 76.5379C97.5393 76.202 97.6895 75.9456 97.9194 75.7688C98.1492 75.5921 98.4144 75.5037 98.715 75.5037C99.1746 75.5037 99.5547 75.707 99.8553 76.1136C100.386 77.0153 100.907 77.9169 101.42 78.8186C101.933 79.7202 102.437 80.6219 102.932 81.5235C103.179 81.9655 103.391 82.3589 103.568 82.7037C103.745 83.0484 103.957 83.4418 104.204 83.8838L106.883 79.2429C106.971 79.0838 107.073 78.9026 107.188 78.6992C107.303 78.4959 107.404 78.3235 107.493 78.1821C107.687 77.8462 107.877 77.5147 108.063 77.1876C108.249 76.8606 108.501 76.4672 108.819 76.0075C108.978 75.8661 109.15 75.7644 109.336 75.7026C109.522 75.6407 109.685 75.6097 109.827 75.6097C110.127 75.6097 110.388 75.6937 110.609 75.8617C110.83 76.0296 110.993 76.2727 111.099 76.5909C111.17 77.4749 111.223 78.4031 111.259 79.3755L111.259 80.3037C111.276 80.7103 111.29 81.1213 111.298 81.5368C111.307 81.9523 111.329 82.3722 111.365 82.7965C111.4 83.539 111.435 84.2683 111.471 84.9843C111.506 85.7003 111.524 86.4296 111.524 87.1722C111.488 87.5965 111.347 87.9147 111.099 88.1269C110.852 88.339 110.569 88.4451 110.251 88.4451C109.968 88.4451 109.694 88.3479 109.429 88.1534C109.164 87.9589 109.013 87.6584 108.978 87.2517C108.978 86.3854 108.956 85.5191 108.912 84.6528C108.867 83.7865 108.828 82.9202 108.792 82.0539L108.739 80.9932L107.838 82.6639C107.484 83.3003 107.104 83.9722 106.697 84.6793C106.291 85.3865 105.778 86.1998 105.159 87.1191C104.929 87.3666 104.602 87.4904 104.178 87.4904C103.983 87.4904 103.802 87.455 103.634 87.3843C103.466 87.3136 103.285 87.181 103.091 86.9865L101.606 84.2816C101.429 83.9633 101.265 83.6716 101.115 83.4064C100.965 83.1412 100.823 82.8849 100.691 82.6374C100.558 82.3898 100.417 82.1335 100.266 81.8683C100.116 81.6031 99.9525 81.3026 99.7757 80.9666C99.7757 81.1081 99.7713 81.2451 99.7625 81.3777C99.7536 81.5103 99.7492 81.6473 99.7492 81.7887C99.7138 82.7611 99.6696 83.7247 99.6166 84.6793C99.5636 85.634 99.4929 86.5887 99.4045 87.5434L99.3779 87.57Z"/>
<path d="M113.884 81.6296C113.919 81.0108 113.999 80.3655 114.123 79.6937C114.246 79.0219 114.459 78.3766 114.759 77.7578C114.971 77.3335 115.237 76.9313 115.555 76.5512C115.873 76.1711 116.227 75.844 116.616 75.57C117.004 75.2959 117.42 75.0749 117.862 74.907C118.304 74.739 118.755 74.655 119.214 74.655C120.134 74.655 120.974 74.9821 121.734 75.6363C122.582 76.4142 123.206 77.3247 123.603 78.3677C124.001 79.4108 124.218 80.4716 124.253 81.5501C124.271 82.2749 124.16 83.0617 123.922 83.9103C123.683 84.7589 123.329 85.5412 122.861 86.2572C122.392 86.9733 121.813 87.5611 121.124 88.0208C120.434 88.4805 119.639 88.6661 118.737 88.5777C117.995 88.507 117.34 88.286 116.775 87.9147C116.209 87.5434 115.705 87.0484 115.263 86.4296C114.75 85.6871 114.406 84.9092 114.229 84.0959C114.052 83.2827 113.937 82.4606 113.884 81.6296ZM117.013 78.7921C116.642 79.676 116.452 80.6351 116.443 81.6694C116.434 82.7037 116.642 83.6716 117.066 84.5733C117.261 84.9622 117.526 85.3468 117.862 85.7269C118.198 86.107 118.613 86.297 119.108 86.297C119.462 86.297 119.811 86.1512 120.156 85.8595C120.501 85.5677 120.797 85.1655 121.044 84.6528C121.239 84.2108 121.393 83.7335 121.508 83.2208C121.623 82.7081 121.681 82.1777 121.681 81.6296C121.681 81.2053 121.623 80.7235 121.508 80.1843C121.393 79.6451 121.225 79.1324 121.004 78.6462C120.783 78.16 120.514 77.749 120.196 77.413C119.877 77.0771 119.524 76.9092 119.135 76.9092C118.905 76.9092 118.684 76.9711 118.472 77.0948C118.26 77.2186 118.061 77.3733 117.875 77.5589C117.69 77.7445 117.526 77.9479 117.385 78.1688C117.243 78.3898 117.119 78.5976 117.013 78.7921Z"/>
<path d="M126.083 75.5832C126.154 75.2296 126.308 74.9644 126.547 74.7876C126.786 74.6108 127.046 74.5224 127.329 74.5224C127.595 74.5224 127.855 74.6064 128.112 74.7744C128.368 74.9423 128.549 75.1854 128.655 75.5037C128.638 75.9987 128.62 76.5026 128.602 77.0153C128.585 77.528 128.576 78.0407 128.576 78.5534C128.576 79.1722 128.593 79.7998 128.629 80.4363C128.664 81.0727 128.735 81.7003 128.841 82.3191C128.947 82.9379 129.088 83.5434 129.265 84.1357C129.442 84.728 129.672 85.2893 129.955 85.8197C130.167 86.0142 130.308 86.107 130.379 86.0981C130.45 86.0893 130.503 86.0849 130.538 86.0849C130.68 86.1026 130.772 86.0981 130.817 86.0716C130.861 86.0451 130.936 85.9965 131.042 85.9258C131.696 84.7235 132.147 83.2827 132.395 81.6031C132.642 79.9235 132.81 78.0142 132.898 75.8749C132.987 75.5744 133.146 75.349 133.376 75.1987C133.606 75.0484 133.853 74.9733 134.118 74.9733C134.49 74.9733 134.795 75.1147 135.033 75.3976C135.272 75.6805 135.391 75.981 135.391 76.2992C135.374 76.8119 135.36 77.2584 135.351 77.6385C135.343 78.0186 135.338 78.3854 135.338 78.739C135.338 79.3932 135.36 80.0694 135.404 80.7677C135.449 81.4661 135.528 82.1379 135.643 82.7832C135.758 83.4285 135.926 84.0252 136.147 84.5733C136.368 85.1213 136.655 85.5722 137.009 85.9258L137.354 86.0318L137.407 86.0318C137.389 86.0318 137.451 86.0142 137.592 85.9788C138.017 85.5722 138.322 85.0595 138.507 84.4407C138.693 83.8219 138.839 83.1943 138.945 82.5578C139.139 81.3909 139.267 80.2285 139.329 79.0705C139.391 77.9125 139.44 76.7412 139.475 75.5567C139.546 75.2031 139.701 74.9379 139.939 74.7611C140.178 74.5843 140.448 74.4959 140.748 74.4959C140.996 74.4959 141.248 74.5799 141.504 74.7479C141.76 74.9158 141.941 75.1589 142.048 75.4771C141.977 76.7501 141.911 78.0009 141.849 79.2296C141.787 80.4584 141.659 81.6827 141.464 82.9026C141.358 83.5213 141.212 84.149 141.027 84.7854C140.841 85.4219 140.598 86.0009 140.297 86.5224C139.997 87.044 139.612 87.4727 139.144 87.8086C138.675 88.1445 138.105 88.3125 137.433 88.3125C136.478 88.3125 135.701 88.0119 135.099 87.4108C134.834 87.1456 134.622 86.9026 134.463 86.6816C134.304 86.4606 134.162 86.2263 134.039 85.9788L133.959 85.8992L133.933 85.8727C133.791 86.1733 133.645 86.4429 133.495 86.6816C133.345 86.9202 133.172 87.1368 132.978 87.3313C132.571 87.7026 132.182 87.9677 131.811 88.1269C131.44 88.286 130.998 88.3655 130.485 88.3655C129.972 88.3655 129.473 88.2595 128.987 88.0473C128.501 87.8351 128.107 87.4904 127.807 87.013C127.435 86.4119 127.13 85.7666 126.892 85.0771C126.653 84.3876 126.472 83.676 126.348 82.9423C126.224 82.2086 126.14 81.4705 126.096 80.728C126.052 79.9854 126.03 79.2429 126.03 78.5003C126.03 78.0053 126.034 77.5147 126.043 77.0285C126.052 76.5423 126.065 76.0694 126.083 75.6097L126.083 75.5832ZM143.427 88.5512C143.427 89.17 143.325 89.6871 143.122 90.1026C142.918 90.518 142.56 90.8495 142.048 91.097C141.287 91.4506 140.492 91.6274 139.661 91.6274C138.123 91.6274 137.354 91.2915 137.354 90.6197C137.354 90.3191 137.455 90.0849 137.659 89.9169C137.862 89.749 138.114 89.665 138.414 89.665C138.697 89.665 138.945 89.6871 139.157 89.7313C139.369 89.7755 139.572 89.7976 139.767 89.7976C140.739 89.7976 141.252 89.3733 141.305 88.5247C141.075 88.2771 140.536 88.1269 139.687 88.0738C138.503 88.0385 137.911 87.8086 137.911 87.3843C137.911 87.349 137.915 87.3003 137.924 87.2385C137.933 87.1766 137.959 87.0793 138.003 86.9468C138.048 86.8142 138.109 86.6329 138.189 86.4031C138.269 86.1733 138.388 85.8727 138.547 85.5014C138.724 85.0771 139.06 84.865 139.555 84.865C140.28 84.865 140.642 85.2097 140.642 85.8992C140.642 86.0937 140.616 86.2793 140.562 86.4561C142.472 86.7213 143.427 87.4197 143.427 88.5512Z"/>
<path d="M151.303 87.3313C150.967 87.6318 150.6 87.8572 150.202 88.0075C149.804 88.1578 149.402 88.2329 148.996 88.2329C148.395 88.2329 147.829 88.0738 147.298 87.7556C147.21 88.0385 147.06 88.2374 146.848 88.3523C146.635 88.4672 146.397 88.5247 146.132 88.5247C145.831 88.5247 145.553 88.4274 145.296 88.2329C145.04 88.0385 144.894 87.7379 144.859 87.3313C144.876 85.3865 144.885 83.4506 144.885 81.5235C144.885 79.5965 144.885 77.6517 144.885 75.6893C144.956 75.3357 145.106 75.0705 145.336 74.8937C145.566 74.7169 145.831 74.6285 146.132 74.6285C146.397 74.6285 146.653 74.7125 146.901 74.8805C147.148 75.0484 147.325 75.2915 147.431 75.6097L147.431 79.1368C147.926 78.8716 148.448 78.739 148.996 78.739C149.455 78.739 149.884 78.8186 150.282 78.9777C150.68 79.1368 151.038 79.3932 151.356 79.7468C151.816 80.2241 152.16 80.7898 152.39 81.444C152.62 82.0981 152.744 82.7346 152.761 83.3534C152.761 84.0252 152.646 84.7235 152.417 85.4484C152.187 86.1733 151.816 86.8009 151.303 87.3313ZM148.943 81.0197C148.677 81.0197 148.452 81.139 148.266 81.3777C148.081 81.6164 147.944 81.9169 147.855 82.2793C147.767 82.6418 147.723 83.0351 147.723 83.4595C147.723 83.8838 147.771 84.2771 147.869 84.6396C147.966 85.002 148.103 85.307 148.28 85.5545C148.456 85.802 148.686 85.9258 148.969 85.9258C149.128 85.9258 149.287 85.8639 149.446 85.7401C149.606 85.6164 149.738 85.4307 149.844 85.1832C149.95 84.9003 150.034 84.6175 150.096 84.3346C150.158 84.0517 150.189 83.7512 150.189 83.4329C150.189 83.1324 150.158 82.8539 150.096 82.5976C150.034 82.3412 149.959 82.0981 149.871 81.8683C149.747 81.6208 149.606 81.4175 149.446 81.2584C149.287 81.0992 149.119 81.0197 148.943 81.0197Z"/>
</g>
</g>
</svg>
